<svg width="374" height="800" viewBox="0 0 374 800" fill="none" xmlns="http://www.w3.org/2000/svg">
<g clip-path="url(#clip0_145_1398)">
<rect width="360" height="800" fill="#454545"/>
<g filter="url(#filter0_d_145_1398)">
<rect x="11.8727" y="273.764" width="89" height="86" rx="20" transform="rotate(-18.0389 11.8727 273.764)" fill="#FFA559"/>
<g filter="url(#filter1_i_145_1398)">
<rect x="10.3025" y="272.172" width="90" height="90" rx="15" transform="rotate(-18.0389 10.3025 272.172)" stroke="#FFA559" stroke-width="10"/>
</g>
<g filter="url(#filter2_d_145_1398)">
<path d="M94.812 293.454C94.7213 293.175 94.4824 292.986 94.2031 292.932C94.8979 291.774 95.1824 290.604 94.7296 289.214C93.3952 285.117 87.8521 286.029 87.2383 284.145C87.8521 286.029 82.8345 288.556 84.1689 292.653C84.6215 294.043 85.5402 294.821 86.7837 295.348C86.5901 295.556 86.5082 295.85 86.599 296.128C86.7307 296.533 87.1724 296.751 87.6014 296.635L88.9198 300.684C88.5049 300.843 88.2764 301.279 88.4081 301.683C88.5399 302.088 88.9817 302.307 89.4106 302.191L90.099 304.304L80.2002 307.528L79.1962 304.445L78.06 304.815L77.3687 302.692L77.2746 302.723C78.6765 300.226 79.2051 297.682 78.2302 294.689C75.4784 286.239 64.8494 287.166 61.8677 284.208C62.2127 284.179 62.5562 284.113 62.8892 284.004C64.1331 283.599 65.1244 282.697 65.6086 281.529C65.7768 281.122 65.878 280.697 65.9092 280.265L65.914 280.198L65.8689 280.251C65.3426 280.868 64.6483 281.33 63.8611 281.586C62.9377 281.887 61.9338 281.878 61.0343 281.562C59.325 280.96 58.2584 279.373 58.3805 277.614L58.3852 277.547L58.3402 277.6C58.0511 277.939 57.8188 278.318 57.65 278.726C57.2233 279.755 57.236 280.868 57.686 281.86C58.1358 282.853 58.9693 283.605 60.0323 283.979C60.4435 284.124 60.8768 284.202 61.3142 284.219C60.8865 288.386 51.4468 293.932 54.2379 302.502C55.2127 305.496 57.1375 307.241 59.7412 308.433L59.647 308.464L60.3383 310.586L59.2025 310.956L60.2066 314.039L50.3075 317.263L49.616 315.14C50.0314 314.981 50.2608 314.544 50.1292 314.14C49.9975 313.735 49.5547 313.517 49.1253 313.633L47.8068 309.585C48.2222 309.426 48.4517 308.989 48.3199 308.584C48.2293 308.306 47.9899 308.117 47.7102 308.063C48.4048 306.906 48.6895 305.736 48.2368 304.346C46.9024 300.248 41.3584 301.161 40.7446 299.276C41.3584 301.16 36.3416 303.688 37.676 307.785C38.1288 309.175 39.0479 309.953 40.2911 310.479C40.0972 310.688 40.015 310.981 40.1056 311.259C40.2373 311.664 40.6797 311.882 41.1086 311.766L42.4271 315.815C42.0124 315.974 41.7832 316.411 41.9149 316.815C42.0465 317.219 42.489 317.437 42.9178 317.321L43.6093 319.445L43.6047 319.446L48.1683 333.459L54.746 331.317L52.9866 325.914C52.2562 323.672 55.1746 321.096 55.1746 321.096C55.1746 321.096 59.0497 321.459 59.7801 323.702L61.5395 329.104L70.0039 326.348L67.4921 318.635C66.468 315.491 70.5604 311.88 70.5604 311.88C70.5604 311.88 75.9943 312.389 77.0184 315.533L79.5301 323.245L87.9944 320.489L86.235 315.086C85.5046 312.844 88.4228 310.268 88.4228 310.268C88.4228 310.268 92.2981 310.631 93.0285 312.874L94.788 318.276L101.366 316.134L96.8021 302.121L96.7978 302.123L96.1094 300.009C96.5243 299.85 96.7531 299.413 96.6213 299.009C96.4895 298.604 96.0474 298.386 95.6186 298.502L94.3002 294.454C94.7148 294.295 94.9437 293.858 94.812 293.454Z" fill="white"/>
</g>
</g>
<g filter="url(#filter3_d_145_1398)">
<rect x="11.8791" y="418.856" width="44.5" height="43" rx="10" transform="rotate(-16.6974 11.8791 418.856)" fill="#FFA559"/>
<g filter="url(#filter4_i_145_1398)">
<rect x="14.2258" y="419.718" width="40" height="40" rx="5" transform="rotate(-16.6974 14.2258 419.718)" stroke="#FFA559" stroke-width="10"/>
</g>
</g>
<g filter="url(#filter5_d_145_1398)">
<rect x="26.9458" y="167.112" width="44.5" height="43" rx="10" transform="rotate(13.7234 26.9458 167.112)" fill="#FFA559"/>
<g filter="url(#filter6_i_145_1398)">
<rect x="28.5329" y="169.043" width="40" height="40" rx="5" transform="rotate(13.7234 28.5329 169.043)" stroke="#FFA559" stroke-width="10"/>
</g>
</g>
<g filter="url(#filter7_d_145_1398)">
<rect x="312.78" y="456.571" width="26.7" height="25.8" rx="5" transform="rotate(18.9878 312.78 456.571)" fill="#FFA559"/>
<g filter="url(#filter8_i_145_1398)">
<mask id="path-9-inside-1_145_1398" fill="white">
<rect x="311.761" y="454" width="30" height="30" rx="5" transform="rotate(18.9878 311.761 454)"/>
</mask>
<rect x="311.761" y="454" width="30" height="30" rx="5" transform="rotate(18.9878 311.761 454)" stroke="#FFA559" stroke-width="20" mask="url(#path-9-inside-1_145_1398)"/>
</g>
</g>
<g filter="url(#filter9_d_145_1398)">
<rect x="134.78" y="206.571" width="26.7" height="25.8" rx="5" transform="rotate(18.9878 134.78 206.571)" fill="#FFA559"/>
<g filter="url(#filter10_i_145_1398)">
<mask id="path-11-inside-2_145_1398" fill="white">
<rect x="133.761" y="204" width="30" height="30" rx="5" transform="rotate(18.9878 133.761 204)"/>
</mask>
<rect x="133.761" y="204" width="30" height="30" rx="5" transform="rotate(18.9878 133.761 204)" stroke="#FFA559" stroke-width="20" mask="url(#path-11-inside-2_145_1398)"/>
</g>
</g>
<g filter="url(#filter11_d_145_1398)">
<rect x="126.78" y="376.571" width="26.7" height="25.8" rx="5" transform="rotate(18.9878 126.78 376.571)" fill="#FFA559"/>
<g filter="url(#filter12_i_145_1398)">
<mask id="path-13-inside-3_145_1398" fill="white">
<rect x="125.761" y="374" width="30" height="30" rx="5" transform="rotate(18.9878 125.761 374)"/>
</mask>
<rect x="125.761" y="374" width="30" height="30" rx="5" transform="rotate(18.9878 125.761 374)" stroke="#FFA559" stroke-width="20" mask="url(#path-13-inside-3_145_1398)"/>
</g>
</g>
<g filter="url(#filter13_d_145_1398)">
<rect x="204.848" y="179.166" width="26.7" height="25.8" rx="5" transform="rotate(2.15615 204.848 179.166)" fill="#FFA559"/>
<g filter="url(#filter14_i_145_1398)">
<mask id="path-15-inside-4_145_1398" fill="white">
<rect x="203.129" y="177" width="30" height="30" rx="5" transform="rotate(2.15615 203.129 177)"/>
</mask>
<rect x="203.129" y="177" width="30" height="30" rx="5" transform="rotate(2.15615 203.129 177)" stroke="#FFA559" stroke-width="20" mask="url(#path-15-inside-4_145_1398)"/>
</g>
</g>
<g filter="url(#filter15_d_145_1398)">
<rect x="260.878" y="783.719" width="26.7" height="25.8" rx="5" transform="rotate(51.222 260.878 783.719)" fill="#FFA559"/>
<g filter="url(#filter16_i_145_1398)">
<mask id="path-17-inside-5_145_1398" fill="white">
<rect x="261.387" y="781" width="30" height="30" rx="5" transform="rotate(51.222 261.387 781)"/>
</mask>
<rect x="261.387" y="781" width="30" height="30" rx="5" transform="rotate(51.222 261.387 781)" stroke="#FFA559" stroke-width="20" mask="url(#path-17-inside-5_145_1398)"/>
</g>
</g>
<g filter="url(#filter17_d_145_1398)">
<rect x="22.8775" y="757.719" width="26.7" height="25.8" rx="5" transform="rotate(51.222 22.8775 757.719)" fill="#FFA559"/>
<g filter="url(#filter18_i_145_1398)">
<mask id="path-19-inside-6_145_1398" fill="white">
<rect x="23.3873" y="755" width="30" height="30" rx="5" transform="rotate(51.222 23.3873 755)"/>
</mask>
<rect x="23.3873" y="755" width="30" height="30" rx="5" transform="rotate(51.222 23.3873 755)" stroke="#FFA559" stroke-width="20" mask="url(#path-19-inside-6_145_1398)"/>
</g>
<g filter="url(#filter19_d_145_1398)">
<rect x="22.8775" y="757.719" width="26.7" height="25.8" rx="5" transform="rotate(51.222 22.8775 757.719)" fill="#FFA559"/>
<g filter="url(#filter20_i_145_1398)">
<mask id="path-21-inside-7_145_1398" fill="white">
<rect x="23.3873" y="755" width="30" height="30" rx="5" transform="rotate(51.222 23.3873 755)"/>
</mask>
<rect x="23.3873" y="755" width="30" height="30" rx="5" transform="rotate(51.222 23.3873 755)" stroke="#FFA559" stroke-width="20" mask="url(#path-21-inside-7_145_1398)"/>
</g>
</g>
</g>
<g filter="url(#filter21_d_145_1398)">
<rect x="319.682" y="733.001" width="26.7" height="25.8" rx="5" transform="rotate(-35.2779 319.682 733.001)" fill="#FFA559"/>
<g filter="url(#filter22_i_145_1398)">
<mask id="path-23-inside-8_145_1398" fill="white">
<rect x="317" y="732.326" width="30" height="30" rx="5" transform="rotate(-35.2779 317 732.326)"/>
</mask>
<rect x="317" y="732.326" width="30" height="30" rx="5" transform="rotate(-35.2779 317 732.326)" stroke="#FFA559" stroke-width="20" mask="url(#path-23-inside-8_145_1398)"/>
</g>
</g>
<g filter="url(#filter23_d_145_1398)">
<rect x="312.323" y="148.099" width="62.3" height="60.2" rx="10" transform="rotate(59.6934 312.323 148.099)" fill="#FFA559"/>
<g filter="url(#filter24_i_145_1398)">
<rect x="312.64" y="148.84" width="60" height="60" rx="5" transform="rotate(59.6934 312.64 148.84)" stroke="#FFA559" stroke-width="10"/>
</g>
</g>
<g filter="url(#filter25_d_145_1398)">
<rect x="186.015" y="253.354" width="62.3" height="60.2" rx="10" transform="rotate(50.6671 186.015 253.354)" fill="#FFA559"/>
<g filter="url(#filter26_i_145_1398)">
<rect x="186.445" y="254.037" width="60" height="60" rx="5" transform="rotate(50.6671 186.445 254.037)" stroke="#FFA559" stroke-width="10"/>
</g>
</g>
<g filter="url(#filter27_d_145_1398)">
<rect x="47" y="59" width="60" height="60" rx="30" fill="#1E1E1E"/>
<path d="M75.5037 105.748C73.2667 108.01 69.6198 108.03 67.358 105.793L58.314 96.8487C57.1831 95.7302 57.173 93.9067 58.2915 92.7758V92.7758C59.41 91.6449 61.2334 91.6348 62.3644 92.7533L75.5037 105.748V105.748Z" fill="#FF6000"/>
<path d="M95.7555 85.2713C94.6371 86.4022 92.8136 86.4123 91.6827 85.2938L78.5433 72.2989V72.2989C80.7803 70.037 84.4272 70.0169 86.6891 72.2538L95.733 81.1984C96.8639 82.3169 96.874 84.1404 95.7555 85.2713V85.2713Z" fill="#FF6000"/>
<rect x="82.5919" y="98.5813" width="10.08" height="5.76" transform="rotate(134.683 82.5919 98.5813)" fill="#FF6000"/>
<path d="M82.5919 98.5813L71.5002 87.6115C69.2384 85.3746 69.2182 81.7276 71.4552 79.4658V79.4658L82.5468 90.4355C84.8087 92.6725 84.8288 96.3195 82.5919 98.5813V98.5813Z" fill="#FF6000"/>
<rect x="82.6387" y="76.3493" width="10.08" height="5.76" transform="rotate(134.683 82.6387 76.3493)" fill="#FF6000"/>
<path d="M81.2763 81.9909C81.9145 81.3486 82.6445 80.7978 83.4549 80.3511C83.427 80.3377 83.399 80.3245 83.3712 80.311C83.0776 80.1677 82.7866 80.019 82.5032 79.8565C82.4385 79.8195 82.374 79.7822 82.3094 79.7452C82.0942 79.8828 81.8849 80.0277 81.6814 80.1793C81.6381 80.1556 81.595 80.1317 81.5522 80.1071C81.5107 80.0833 81.4693 80.0593 81.4277 80.0356C81.345 80.0885 81.2637 80.1431 81.1836 80.1992C81.0445 80.0764 80.8606 79.9069 80.6552 79.6997L81.1989 79.156L80.8902 79.0607L80.4568 79.4942C79.9418 78.9468 79.348 78.2019 78.9939 77.38L78.6514 77.7224C78.956 78.372 79.4204 79.0381 80.0383 79.7103C80.0711 79.7459 80.1036 79.7809 80.1359 79.8151L79.1005 80.8505C79.0663 80.8182 79.0313 80.7857 78.9956 80.7529C78.3235 80.1351 77.6573 79.6706 77.0078 79.366L76.6654 79.7085C77.4873 80.0627 78.2322 80.6564 78.7796 81.1714L78.3461 81.6048L78.4414 81.9135L78.9851 81.3698C79.1923 81.5752 79.3618 81.7591 79.4846 81.8983C79.4285 81.9783 79.3739 82.0596 79.321 82.1423C79.3447 82.1839 79.3687 82.2253 79.3925 82.2668C79.4171 82.3096 79.441 82.3527 79.4647 82.396C79.3131 82.5995 79.1682 82.8088 79.0306 83.024C79.0676 83.0887 79.1049 83.1531 79.1419 83.2178C79.3044 83.5012 79.4531 83.7923 79.5963 84.0858C79.6099 84.1136 79.6231 84.1416 79.6365 84.1695C80.0832 83.3591 80.634 82.6291 81.2763 81.9909ZM80.8142 80.4772C80.654 80.6066 80.5001 80.7429 80.3526 80.8858L79.9108 80.4441L80.3345 80.0204C80.5152 80.2028 80.6797 80.3566 80.8142 80.4772ZM79.3058 81.049L79.7295 80.6254L80.1712 81.0671C80.0283 81.2146 79.892 81.3686 79.7626 81.5288C79.642 81.3943 79.4882 81.2298 79.3058 81.049Z" fill="#FF6000"/>
<path d="M86.5086 92.1093C86.5283 92.0896 86.5346 92.0618 86.5281 92.0366C86.6525 92.0419 86.7617 92.0133 86.8601 91.9149C87.15 91.625 86.8537 91.2145 86.987 91.0811C86.8537 91.2145 86.4432 90.9182 86.1532 91.2081C86.0549 91.3064 86.0262 91.4156 86.0315 91.5401C86.0064 91.5336 85.9786 91.5399 85.9589 91.5596C85.9303 91.5882 85.9295 91.6338 85.9562 91.6636L85.6698 91.95C85.64 91.9233 85.5944 91.924 85.5658 91.9527C85.5372 91.9813 85.5364 92.0269 85.5631 92.0567L85.4136 92.2062L84.7511 91.5437L84.9692 91.3255L84.8932 91.2495L85.0434 91.0993L85.0371 91.093C85.3016 91.0965 85.5355 91.0269 85.7473 90.8151C86.3451 90.2172 85.8458 89.3937 85.975 89.0202C85.9912 89.047 86.0104 89.0719 86.0327 89.0942C86.1159 89.1775 86.2307 89.2182 86.3477 89.2059C86.3884 89.2015 86.428 89.191 86.4654 89.1744L86.4712 89.1718L86.4649 89.1705C86.3924 89.155 86.3262 89.119 86.2735 89.0663C86.2117 89.0045 86.1726 88.9224 86.1634 88.8352C86.146 88.6695 86.2364 88.5125 86.3885 88.4446L86.3943 88.442L86.3881 88.4407C86.3482 88.4322 86.3073 88.4301 86.2665 88.4344C86.1634 88.4452 86.0708 88.4955 86.0056 88.5761C85.9404 88.6566 85.9105 88.7577 85.9214 88.8607C85.9256 88.9006 85.9362 88.9393 85.9522 88.9756C85.5865 89.1253 84.7479 88.6029 84.1415 89.2093C83.9297 89.4211 83.86 89.6549 83.8636 89.9195L83.8573 89.9132L83.7071 90.0634L83.6311 89.9874L83.4129 90.2055L82.7504 89.543L82.9006 89.3927C82.9304 89.4195 82.9761 89.4188 83.0047 89.3902C83.0333 89.3616 83.034 89.3159 83.0072 89.2861L83.2937 88.9997C83.3235 89.0264 83.3691 89.0257 83.3977 88.9971C83.4174 88.9774 83.4237 88.9496 83.4172 88.9245C83.5416 88.9297 83.6508 88.9011 83.7491 88.8027C84.039 88.5128 83.7427 88.1022 83.8761 87.9689C83.7427 88.1022 83.3322 87.806 83.0423 88.0959C82.9439 88.1943 82.9153 88.3035 82.9206 88.4279C82.8954 88.4214 82.8677 88.4276 82.848 88.4473C82.8194 88.476 82.8187 88.5216 82.8454 88.5514L82.5589 88.8378C82.5291 88.8111 82.4835 88.8118 82.4549 88.8404C82.4263 88.869 82.4256 88.9147 82.4523 88.9444L82.3021 89.0947L82.3017 89.0944L81.3102 90.0859L81.7505 90.5261L82.1327 90.1439C82.2914 89.9852 82.6227 90.1086 82.6227 90.1086C82.6227 90.1086 82.7461 90.4399 82.5874 90.5985L82.2052 90.9808L82.7717 91.5473L83.3174 91.0016C83.5399 90.7791 84.0045 90.9522 84.0045 90.9522C84.0045 90.9522 84.1775 91.4167 83.955 91.6392L83.4093 92.1849L83.9758 92.7514L84.358 92.3692C84.5167 92.2105 84.848 92.3339 84.848 92.3339C84.848 92.3339 84.9714 92.6652 84.8127 92.8238L84.4305 93.2061L84.8707 93.6464L85.8622 92.6549L85.8619 92.6546L86.0115 92.505C86.0412 92.5317 86.0869 92.531 86.1155 92.5024C86.1441 92.4737 86.1448 92.4281 86.1181 92.3984L86.4046 92.1119C86.4343 92.1386 86.4799 92.1379 86.5086 92.1093Z" fill="#FF6000"/>
<path d="M81.6582 87.6696L82.4085 86.9194L82.5144 85.3605L82.9036 84.9714L83.1788 85.2466L83.3852 85.0403L83.1099 84.765L83.3681 84.5069L83.1616 84.3004L82.9035 84.5585L82.6282 84.2833L82.4218 84.4897L82.6971 84.7649L82.2991 85.1628L80.7568 85.2677L80.0154 86.0091L79.3113 86.057L78.2963 87.0719L79.178 87.9536L79.8108 87.3207C79.9591 87.1724 80.1996 87.1724 80.3478 87.3206C80.4962 87.469 80.4961 87.7094 80.3478 87.8577L79.7149 88.4905L80.5966 89.3722L81.6115 88.3572L81.6582 87.6696ZM80.8336 86.3874L80.6248 86.1786L80.8336 85.9698L81.0424 86.1786L80.8336 86.3874ZM81.4899 87.0437L81.281 86.8349L81.4899 86.6261L81.6987 86.8349L81.4899 87.0437Z" fill="#FF6000"/>
<path d="M84.7043 79.7996C84.7314 79.8654 84.7957 79.9084 84.8671 79.9084C85.1415 79.9084 85.3994 80.0152 85.5934 80.2092L85.8641 80.4799L85.2726 81.0714C84.7897 80.7102 84.101 80.7475 83.6624 81.1861C83.612 81.2365 83.5969 81.3123 83.6242 81.3781C83.6512 81.4439 83.7157 81.4869 83.787 81.4869C84.0614 81.4869 84.3194 81.5938 84.5134 81.7878L84.842 82.1164L84.6112 83.2702C84.5881 83.3858 84.703 83.5007 84.8186 83.4775L85.9724 83.2468L86.301 83.5754C86.495 83.7694 86.6018 84.0273 86.6018 84.3017C86.6018 84.3731 86.6447 84.4373 86.7106 84.4646C86.7765 84.4919 86.8522 84.4768 86.9027 84.4264C87.0466 84.2824 87.1535 84.104 87.2116 83.9103C87.3257 83.5313 87.2507 83.1263 87.018 82.8155L87.6089 82.2246L87.8795 82.4953C88.0735 82.6893 88.1804 82.9472 88.1804 83.2216C88.1803 83.2929 88.2234 83.3572 88.2892 83.3845C88.355 83.4118 88.4308 83.3967 88.4813 83.3463C88.6252 83.2023 88.732 83.0239 88.7902 82.8302C88.9043 82.4512 88.8293 82.0462 88.5966 81.7354L89.4782 80.8538C89.5471 80.7849 89.5471 80.6733 89.4782 80.6045L88.9797 80.106L88.3566 80.7291C88.2878 80.798 88.1762 80.7979 88.1074 80.7291C88.0386 80.6603 88.0385 80.5487 88.1074 80.4799L88.7305 79.8567L88.232 79.3582L87.6089 79.9814C87.54 80.0502 87.4284 80.0502 87.3596 79.9814C87.2908 79.9126 87.2908 79.801 87.3596 79.7321L87.9828 79.109L87.4843 78.6105C87.4155 78.5417 87.3038 78.5416 87.235 78.6105L86.3527 79.4928C85.8698 79.1316 85.1811 79.1689 84.7425 79.6075C84.6921 79.6579 84.677 79.7337 84.7043 79.7996ZM86.8741 83.8088L86.874 83.8088C86.8725 83.8137 86.871 83.8186 86.8695 83.8234C86.8014 83.6388 86.6935 83.4694 86.5502 83.3261L84.7626 81.5385C84.6194 81.3953 84.4503 81.2875 84.2658 81.2194C84.57 81.1224 84.9169 81.1944 85.1579 81.4353L86.6534 82.9308C86.8834 83.1608 86.9679 83.4972 86.8741 83.8088ZM86.4042 81.4353L86.6119 81.2276L86.8611 81.4769L86.6534 81.6846C86.5846 81.7534 86.473 81.7534 86.4042 81.6846C86.3354 81.6158 86.3353 81.5042 86.4042 81.4353ZM86.238 79.8567L88.232 81.8507C88.462 82.0807 88.5465 82.4171 88.4527 82.7287L88.4526 82.7287C88.4512 82.7336 88.4497 82.7385 88.4481 82.7433C88.38 82.5587 88.2721 82.3893 88.1288 82.246L86.9857 81.103L85.8427 79.9599C85.6995 79.8167 85.5304 79.7089 85.3459 79.6408C85.6502 79.5438 85.997 79.6158 86.238 79.8567Z" fill="#FF6000"/>
<path d="M88.6048 84.4621C88.7086 84.8524 88.7279 85.2502 88.663 85.6112L89.7777 86.7259C90.1387 86.661 90.5364 86.6803 90.9268 86.784L91.1295 86.9868L91.3633 86.753L88.6359 84.0256L88.4021 84.2594L88.6048 84.4621Z" fill="#FF6000"/>
<path d="M89.2025 83.1895C89.2871 83.5072 89.3165 83.8227 89.2895 84.1279L89.2827 84.2048L91.1841 86.1063L91.261 86.0995C91.5662 86.0725 91.8817 86.1018 92.1994 86.1865L92.4036 86.3907L92.6374 86.1569L89.2336 82.7532L88.9999 82.9869L89.2025 83.1895Z" fill="#FF6000"/>
<path d="M88.2073 86.2465L89.1425 87.1816L89.4542 86.8699L88.519 85.9348L88.2073 86.2465Z" fill="#FF6000"/>
<path d="M92.5189 85.5708L93.1423 84.9474L92.3768 84.1819L91.9872 84.5715L91.7534 84.3377L92.1431 83.9481L91.9093 83.7143L91.5196 84.1039L91.2859 83.8702L91.6755 83.4805L91.4417 83.2468L91.0521 83.6364L90.8183 83.4026L91.2079 83.013L90.4415 82.2465L89.8181 82.87L92.5189 85.5708Z" fill="#FF6000"/>
<path d="M87.3852 88.015L87.5955 87.1433L87.5125 86.0209L89.3793 87.8877L88.2568 87.8047L87.3852 88.015Z" fill="#FF6000"/>
<path d="M72.923 96.0388C72.2848 96.6811 71.5547 97.2319 70.7444 97.6786C70.7722 97.692 70.8003 97.7052 70.8281 97.7187C71.1216 97.862 71.4127 98.0107 71.6961 98.1732C71.7607 98.2102 71.8252 98.2475 71.8899 98.2845C72.1051 98.1469 72.3144 98.002 72.5179 97.8504C72.5612 97.8741 72.6042 97.898 72.647 97.9226C72.6886 97.9464 72.73 97.9703 72.7716 97.9941C72.8543 97.9412 72.9356 97.8866 73.0156 97.8305C73.1547 97.9533 73.3387 98.1228 73.5441 98.33L73.0004 98.8737L73.3091 98.969L73.7425 98.5355C74.2575 99.0829 74.8512 99.8278 75.2054 100.65L75.5478 100.307C75.2432 99.6577 74.7788 98.9916 74.161 98.3194C74.1282 98.2837 74.0957 98.2488 74.0634 98.2146L75.0988 97.1792C75.133 97.2115 75.1679 97.244 75.2036 97.2768C75.8757 97.8946 76.5419 98.359 77.1915 98.6637L77.5339 98.3212C76.712 97.967 75.9671 97.3733 75.4197 96.8583L75.8532 96.4249L75.7579 96.1162L75.2142 96.6599C75.007 96.4545 74.8375 96.2706 74.7147 96.1314C74.7708 96.0514 74.8254 95.9701 74.8783 95.8874C74.8545 95.8458 74.8306 95.8044 74.8067 95.7629C74.7822 95.7201 74.7582 95.677 74.7346 95.6337C74.8862 95.4302 75.031 95.2209 75.1687 95.0057C75.1317 94.941 75.0944 94.8766 75.0574 94.8119C74.8949 94.5285 74.7462 94.2374 74.6029 93.9439C74.5894 93.9161 74.5762 93.8881 74.5628 93.8602C74.116 94.6706 73.5653 95.4006 72.923 96.0388ZM73.3851 97.5525C73.5453 97.4231 73.6992 97.2868 73.8467 97.1439L74.2885 97.5856L73.8648 98.0092C73.6841 97.8269 73.5195 97.6731 73.3851 97.5525ZM74.8934 96.9806L74.4698 97.4043L74.0281 96.9626C74.171 96.8151 74.3073 96.6611 74.4366 96.5009C74.5573 96.6354 74.7111 96.7999 74.8934 96.9806Z" fill="#FF6000"/>
<path d="M69.7926 97.7944C69.8123 97.7747 69.8186 97.7469 69.8121 97.7218C69.9366 97.727 70.0457 97.6984 70.1441 97.6C70.434 97.3101 70.1377 96.8996 70.2711 96.7663C70.1377 96.8996 69.7272 96.6033 69.4373 96.8932C69.3389 96.9916 69.3103 97.1007 69.3155 97.2252C69.2904 97.2187 69.2626 97.225 69.2429 97.2447C69.2143 97.2733 69.2136 97.3189 69.2403 97.3487L68.9538 97.6351C68.924 97.6084 68.8785 97.6092 68.8498 97.6378C68.8212 97.6664 68.8205 97.712 68.8472 97.7418L68.6976 97.8913L68.0351 97.2288L68.2532 97.0107L68.1772 96.9346L68.3274 96.7844L68.3211 96.7781C68.5857 96.7816 68.8195 96.712 69.0313 96.5002C69.6292 95.9024 69.1299 95.0788 69.2591 94.7053C69.2752 94.7321 69.2944 94.7571 69.3167 94.7794C69.3999 94.8626 69.5148 94.9033 69.6317 94.891C69.6724 94.8867 69.712 94.8761 69.7494 94.8595L69.7552 94.8569L69.749 94.8556C69.6764 94.8401 69.6103 94.8041 69.5576 94.7514C69.4958 94.6896 69.4567 94.6075 69.4474 94.5204C69.43 94.3547 69.5205 94.1977 69.6725 94.1297L69.6783 94.1272L69.6721 94.1258C69.6322 94.1173 69.5913 94.1152 69.5505 94.1195C69.4475 94.1304 69.3548 94.1807 69.2896 94.2612C69.2244 94.3417 69.1945 94.4428 69.2054 94.5459C69.2096 94.5857 69.2203 94.6244 69.2362 94.6607C68.8706 94.8104 68.0319 94.288 67.4255 94.8944C67.2137 95.1062 67.1441 95.34 67.1476 95.6046L67.1413 95.5983L66.9911 95.7485L66.9151 95.6725L66.6969 95.8906L66.0344 95.2281L66.1846 95.0779C66.2144 95.1046 66.2601 95.1039 66.2887 95.0753C66.3173 95.0467 66.318 95.001 66.2912 94.9713L66.5777 94.6848C66.6075 94.7115 66.6532 94.7109 66.6818 94.6822C66.7015 94.6625 66.7077 94.6347 66.7012 94.6096C66.8256 94.6148 66.9348 94.5862 67.0332 94.4879C67.3231 94.1979 67.0268 93.7874 67.1601 93.654C67.0268 93.7873 66.6162 93.4911 66.3263 93.781C66.228 93.8794 66.1993 93.9886 66.2046 94.113C66.1795 94.1065 66.1517 94.1128 66.132 94.1325C66.1034 94.1611 66.1027 94.2067 66.1294 94.2365L65.8429 94.523C65.8132 94.4963 65.7675 94.4969 65.7389 94.5255C65.7103 94.5541 65.7096 94.5998 65.7363 94.6296L65.5861 94.7798L65.5858 94.7795L64.5943 95.771L65.0345 96.2112L65.4168 95.829C65.5755 95.6703 65.9068 95.7937 65.9068 95.7937C65.9068 95.7937 66.0301 96.125 65.8715 96.2837L65.4892 96.6659L66.0557 97.2324L66.6014 96.6867C66.8239 96.4642 67.2885 96.6373 67.2885 96.6373C67.2885 96.6373 67.4615 97.1018 67.239 97.3243L66.6933 97.87L67.2598 98.4365L67.6421 98.0543C67.8008 97.8956 68.1321 98.019 68.1321 98.019C68.1321 98.019 68.2555 98.3503 68.0968 98.509L67.7145 98.8912L68.1547 99.3315L69.1462 98.34L69.146 98.3397L69.2955 98.1901C69.3253 98.2168 69.3709 98.2161 69.3995 98.1875C69.4282 98.1589 69.4289 98.1132 69.4022 98.0835L69.6886 97.797C69.7183 97.8237 69.764 97.823 69.7926 97.7944Z" fill="#FF6000"/>
<path d="M64.9422 93.3547L65.6924 92.6045L65.7984 91.0457L66.1875 90.6565L66.4628 90.9318L66.6691 90.7254L66.3939 90.4502L66.652 90.1921L66.4455 89.9856L66.1874 90.2437L65.9122 89.9685L65.7058 90.1748L65.9811 90.4501L65.5831 90.848L64.0407 90.9529L63.2994 91.6942L62.5952 91.7421L61.5803 92.7571L62.4619 93.6387L63.0948 93.0059C63.2431 92.8576 63.4836 92.8576 63.6318 93.0058C63.7801 93.1541 63.78 93.3945 63.6317 93.5428L62.9989 94.1757L63.8805 95.0573L64.8955 94.0424L64.9422 93.3547ZM64.1175 92.0726L63.9087 91.8638L64.1175 91.655L64.3264 91.8638L64.1175 92.0726ZM64.7738 92.7289L64.565 92.5201L64.7738 92.3112L64.9826 92.5201L64.7738 92.7289Z" fill="#FF6000"/>
<path d="M67.9883 85.4847C68.0154 85.5505 68.0797 85.5935 68.1511 85.5935C68.4255 85.5935 68.6834 85.7004 68.8774 85.8944L69.1481 86.165L68.5566 86.7566C68.0737 86.3953 67.385 86.4326 66.9464 86.8712C66.896 86.9217 66.8809 86.9974 66.9082 87.0633C66.9352 87.1291 66.9997 87.172 67.071 87.1721C67.3454 87.1721 67.6034 87.279 67.7974 87.4729L68.126 87.8016L67.8952 88.9553C67.8721 89.0709 67.987 89.1858 68.1026 89.1627L69.2564 88.9319L69.585 89.2605C69.779 89.4545 69.8858 89.7125 69.8858 89.9869C69.8858 90.0582 69.9287 90.1224 69.9946 90.1497C70.0604 90.177 70.1362 90.1619 70.1867 90.1115C70.3306 89.9676 70.4375 89.7892 70.4956 89.5955C70.6097 89.2164 70.5347 88.8115 70.302 88.5006L70.8929 87.9098L71.1635 88.1805C71.3575 88.3745 71.4644 88.6324 71.4644 88.9068C71.4643 88.9781 71.5074 89.0424 71.5732 89.0696C71.639 89.0969 71.7148 89.0818 71.7652 89.0314C71.9092 88.8875 72.016 88.7091 72.0742 88.5154C72.1883 88.1363 72.1133 87.7314 71.8806 87.4205L72.7622 86.5389C72.8311 86.4701 72.8311 86.3585 72.7622 86.2897L72.2637 85.7912L71.6406 86.4143C71.5718 86.4831 71.4602 86.4831 71.3914 86.4143C71.3226 86.3455 71.3225 86.2339 71.3914 86.165L72.0145 85.5419L71.516 85.0434L70.8929 85.6665C70.824 85.7354 70.7124 85.7353 70.6436 85.6665C70.5748 85.5977 70.5748 85.4861 70.6436 85.4173L71.2667 84.7941L70.7682 84.2956C70.6995 84.2268 70.5878 84.2268 70.519 84.2956L69.6367 85.178C69.1538 84.8167 68.4651 84.854 68.0265 85.2926C67.9761 85.3431 67.961 85.4189 67.9883 85.4847ZM70.158 89.4939L70.158 89.494C70.1565 89.4988 70.155 89.5037 70.1535 89.5085C70.0854 89.3239 69.9775 89.1546 69.8342 89.0113L68.0466 87.2237C67.9034 87.0805 67.7343 86.9726 67.5498 86.9046C67.854 86.8075 68.2009 86.8795 68.4419 87.1205L69.9374 88.616C70.1674 88.8459 70.2519 89.1823 70.158 89.4939ZM69.6882 87.1205L69.8959 86.9128L70.1451 87.162L69.9374 87.3697C69.8686 87.4386 69.757 87.4385 69.6882 87.3697C69.6194 87.3009 69.6193 87.1893 69.6882 87.1205ZM69.522 85.5419L71.516 87.5359C71.746 87.7658 71.8305 88.1022 71.7367 88.4138L71.7366 88.4139C71.7351 88.4187 71.7336 88.4236 71.7321 88.4284C71.664 88.2438 71.5561 88.0745 71.4128 87.9312L70.2697 86.7881L69.1267 85.6451C68.9835 85.5019 68.8144 85.394 68.6299 85.326C68.9342 85.2289 69.281 85.3009 69.522 85.5419Z" fill="#FF6000"/>
<path d="M71.8889 90.1473C71.9926 90.5376 72.012 90.9353 71.947 91.2964L73.0617 92.4111C73.4228 92.3461 73.8205 92.3655 74.2108 92.4692L74.4136 92.672L74.6473 92.4382L71.9199 89.7108L71.6861 89.9445L71.8889 90.1473Z" fill="#FF6000"/>
<path d="M72.4865 88.8747C72.5711 89.1923 72.6005 89.5079 72.5735 89.8131L72.5666 89.89L74.4681 91.7914L74.545 91.7846C74.8502 91.7576 75.1657 91.787 75.4834 91.8716L75.6876 92.0758L75.9214 91.842L72.5176 88.4383L72.2839 88.6721L72.4865 88.8747Z" fill="#FF6000"/>
<path d="M71.4913 91.9316L72.4265 92.8667L72.7382 92.555L71.803 91.6199L71.4913 91.9316Z" fill="#FF6000"/>
<path d="M75.8029 91.256L76.4263 90.6326L75.6608 89.8671L75.2712 90.2567L75.0374 90.0229L75.4271 89.6333L75.1933 89.3995L74.8036 89.7892L74.5699 89.5554L74.9595 89.1657L74.7257 88.932L74.3361 89.3216L74.1023 89.0878L74.4919 88.6982L73.7255 87.9318L73.1021 88.5552L75.8029 91.256Z" fill="#FF6000"/>
<path d="M70.6692 93.7001L70.8794 92.8285L70.7965 91.706L72.6632 93.5728L71.5408 93.4898L70.6692 93.7001Z" fill="#FF6000"/>
</g>
<g filter="url(#filter28_d_145_1398)">
<path d="M131.6 98.3C130.72 98.3 129.84 98.23 128.96 98.09C128.08 97.97 127.25 97.78 126.47 97.52C125.69 97.24 124.99 96.9 124.37 96.5C124.01 96.26 123.76 95.97 123.62 95.63C123.48 95.29 123.43 94.96 123.47 94.64C123.53 94.3 123.66 94.01 123.86 93.77C124.08 93.51 124.35 93.35 124.67 93.29C124.99 93.23 125.34 93.32 125.72 93.56C126.6 94.08 127.53 94.46 128.51 94.7C129.49 94.94 130.52 95.06 131.6 95.06C133.18 95.06 134.33 94.8 135.05 94.28C135.77 93.74 136.13 93.05 136.13 92.21C136.13 91.51 135.87 90.96 135.35 90.56C134.85 90.16 133.98 89.83 132.74 89.57L129.44 88.88C127.54 88.48 126.12 87.81 125.18 86.87C124.26 85.91 123.8 84.65 123.8 83.09C123.8 82.11 124 81.22 124.4 80.42C124.8 79.62 125.36 78.93 126.08 78.35C126.82 77.77 127.69 77.33 128.69 77.03C129.71 76.71 130.83 76.55 132.05 76.55C133.25 76.55 134.39 76.7 135.47 77C136.55 77.3 137.52 77.74 138.38 78.32C138.7 78.54 138.91 78.81 139.01 79.13C139.13 79.45 139.16 79.77 139.1 80.09C139.04 80.39 138.9 80.65 138.68 80.87C138.46 81.09 138.18 81.22 137.84 81.26C137.52 81.3 137.15 81.2 136.73 80.96C135.99 80.54 135.24 80.24 134.48 80.06C133.72 79.88 132.9 79.79 132.02 79.79C131.1 79.79 130.31 79.92 129.65 80.18C128.99 80.44 128.48 80.81 128.12 81.29C127.78 81.75 127.61 82.3 127.61 82.94C127.61 83.66 127.85 84.24 128.33 84.68C128.81 85.1 129.63 85.43 130.79 85.67L134.06 86.36C136.04 86.78 137.51 87.44 138.47 88.34C139.45 89.24 139.94 90.44 139.94 91.94C139.94 92.9 139.74 93.77 139.34 94.55C138.96 95.33 138.4 96 137.66 96.56C136.94 97.12 136.07 97.55 135.05 97.85C134.03 98.15 132.88 98.3 131.6 98.3ZM150.106 98.3C148.446 98.3 147.016 97.99 145.816 97.37C144.616 96.75 143.686 95.87 143.026 94.73C142.386 93.59 142.066 92.24 142.066 90.68C142.066 89.16 142.376 87.83 142.996 86.69C143.636 85.55 144.506 84.66 145.606 84.02C146.726 83.36 147.996 83.03 149.416 83.03C150.456 83.03 151.386 83.2 152.206 83.54C153.046 83.88 153.756 84.37 154.336 85.01C154.936 85.65 155.386 86.43 155.686 87.35C156.006 88.25 156.166 89.27 156.166 90.41C156.166 90.77 156.036 91.05 155.776 91.25C155.536 91.43 155.186 91.52 154.726 91.52H145.096V89.36H153.526L153.046 89.81C153.046 88.89 152.906 88.12 152.626 87.5C152.366 86.88 151.976 86.41 151.456 86.09C150.956 85.75 150.326 85.58 149.566 85.58C148.726 85.58 148.006 85.78 147.406 86.18C146.826 86.56 146.376 87.11 146.056 87.83C145.756 88.53 145.606 89.37 145.606 90.35V90.56C145.606 92.2 145.986 93.43 146.746 94.25C147.526 95.05 148.666 95.45 150.166 95.45C150.686 95.45 151.266 95.39 151.906 95.27C152.566 95.13 153.186 94.9 153.766 94.58C154.186 94.34 154.556 94.24 154.876 94.28C155.196 94.3 155.446 94.41 155.626 94.61C155.826 94.81 155.946 95.06 155.986 95.36C156.026 95.64 155.966 95.93 155.806 96.23C155.666 96.53 155.416 96.79 155.056 97.01C154.356 97.45 153.546 97.78 152.626 98C151.726 98.2 150.886 98.3 150.106 98.3ZM161.056 98.24C160.436 98.24 159.956 98.08 159.616 97.76C159.296 97.42 159.136 96.94 159.136 96.32V84.98C159.136 84.36 159.296 83.89 159.616 83.57C159.936 83.25 160.386 83.09 160.966 83.09C161.546 83.09 161.996 83.25 162.316 83.57C162.636 83.89 162.796 84.36 162.796 84.98V86.87H162.496C162.776 85.67 163.326 84.76 164.146 84.14C164.966 83.52 166.056 83.15 167.416 83.03C167.836 82.99 168.166 83.1 168.406 83.36C168.666 83.6 168.816 83.98 168.856 84.5C168.896 85 168.776 85.41 168.496 85.73C168.236 86.03 167.836 86.21 167.296 86.27L166.636 86.33C165.416 86.45 164.496 86.83 163.876 87.47C163.256 88.09 162.946 88.97 162.946 90.11V96.32C162.946 96.94 162.786 97.42 162.466 97.76C162.146 98.08 161.676 98.24 161.056 98.24ZM177.879 98.3C176.219 98.3 174.789 97.99 173.589 97.37C172.389 96.75 171.459 95.87 170.799 94.73C170.159 93.59 169.839 92.24 169.839 90.68C169.839 89.16 170.149 87.83 170.769 86.69C171.409 85.55 172.279 84.66 173.379 84.02C174.499 83.36 175.769 83.03 177.189 83.03C178.229 83.03 179.159 83.2 179.979 83.54C180.819 83.88 181.529 84.37 182.109 85.01C182.709 85.65 183.159 86.43 183.459 87.35C183.779 88.25 183.939 89.27 183.939 90.41C183.939 90.77 183.809 91.05 183.549 91.25C183.309 91.43 182.959 91.52 182.499 91.52H172.869V89.36H181.299L180.819 89.81C180.819 88.89 180.679 88.12 180.399 87.5C180.139 86.88 179.749 86.41 179.229 86.09C178.729 85.75 178.099 85.58 177.339 85.58C176.499 85.58 175.779 85.78 175.179 86.18C174.599 86.56 174.149 87.11 173.829 87.83C173.529 88.53 173.379 89.37 173.379 90.35V90.56C173.379 92.2 173.759 93.43 174.519 94.25C175.299 95.05 176.439 95.45 177.939 95.45C178.459 95.45 179.039 95.39 179.679 95.27C180.339 95.13 180.959 94.9 181.539 94.58C181.959 94.34 182.329 94.24 182.649 94.28C182.969 94.3 183.219 94.41 183.399 94.61C183.599 94.81 183.719 95.06 183.759 95.36C183.799 95.64 183.739 95.93 183.579 96.23C183.439 96.53 183.189 96.79 182.829 97.01C182.129 97.45 181.319 97.78 180.399 98C179.499 98.2 178.659 98.3 177.879 98.3ZM188.769 98.24C188.169 98.24 187.709 98.08 187.389 97.76C187.069 97.42 186.909 96.94 186.909 96.32V84.98C186.909 84.36 187.069 83.89 187.389 83.57C187.709 83.25 188.159 83.09 188.739 83.09C189.319 83.09 189.769 83.25 190.089 83.57C190.409 83.89 190.569 84.36 190.569 84.98V87.02L190.239 86.27C190.679 85.21 191.359 84.41 192.279 83.87C193.219 83.31 194.279 83.03 195.459 83.03C196.639 83.03 197.609 83.25 198.369 83.69C199.129 84.13 199.699 84.8 200.079 85.7C200.459 86.58 200.649 87.7 200.649 89.06V96.32C200.649 96.94 200.489 97.42 200.169 97.76C199.849 98.08 199.389 98.24 198.789 98.24C198.189 98.24 197.719 98.08 197.379 97.76C197.059 97.42 196.899 96.94 196.899 96.32V89.24C196.899 88.1 196.679 87.27 196.239 86.75C195.819 86.23 195.159 85.97 194.259 85.97C193.159 85.97 192.279 86.32 191.619 87.02C190.979 87.7 190.659 88.61 190.659 89.75V96.32C190.659 97.6 190.029 98.24 188.769 98.24ZM206.318 98.21C205.718 98.21 205.258 98.03 204.938 97.67C204.618 97.31 204.458 96.81 204.458 96.17V85.16C204.458 84.5 204.618 84 204.938 83.66C205.258 83.3 205.718 83.12 206.318 83.12C206.918 83.12 207.378 83.3 207.698 83.66C208.038 84 208.208 84.5 208.208 85.16V96.17C208.208 96.81 208.048 97.31 207.728 97.67C207.408 98.03 206.938 98.21 206.318 98.21ZM206.318 80.33C205.618 80.33 205.068 80.16 204.668 79.82C204.288 79.46 204.098 78.97 204.098 78.35C204.098 77.71 204.288 77.22 204.668 76.88C205.068 76.54 205.618 76.37 206.318 76.37C207.038 76.37 207.588 76.54 207.968 76.88C208.348 77.22 208.538 77.71 208.538 78.35C208.538 78.97 208.348 79.46 207.968 79.82C207.588 80.16 207.038 80.33 206.318 80.33ZM218.824 98.3C217.524 98.3 216.434 98.08 215.554 97.64C214.694 97.2 214.054 96.56 213.634 95.72C213.214 94.86 213.004 93.8 213.004 92.54V86.15H211.444C210.964 86.15 210.594 86.03 210.334 85.79C210.074 85.53 209.944 85.18 209.944 84.74C209.944 84.28 210.074 83.93 210.334 83.69C210.594 83.45 210.964 83.33 211.444 83.33H213.004V80.6C213.004 79.98 213.164 79.51 213.484 79.19C213.824 78.87 214.294 78.71 214.894 78.71C215.494 78.71 215.954 78.87 216.274 79.19C216.594 79.51 216.754 79.98 216.754 80.6V83.33H219.934C220.414 83.33 220.784 83.45 221.044 83.69C221.304 83.93 221.434 84.28 221.434 84.74C221.434 85.18 221.304 85.53 221.044 85.79C220.784 86.03 220.414 86.15 219.934 86.15H216.754V92.33C216.754 93.29 216.964 94.01 217.384 94.49C217.804 94.97 218.484 95.21 219.424 95.21C219.764 95.21 220.064 95.18 220.324 95.12C220.584 95.06 220.814 95.02 221.014 95C221.254 94.98 221.454 95.06 221.614 95.24C221.774 95.4 221.854 95.74 221.854 96.26C221.854 96.66 221.784 97.02 221.644 97.34C221.524 97.64 221.294 97.85 220.954 97.97C220.694 98.05 220.354 98.12 219.934 98.18C219.514 98.26 219.144 98.3 218.824 98.3ZM227.572 103.64C227.132 103.64 226.772 103.52 226.492 103.28C226.212 103.06 226.042 102.76 225.982 102.38C225.942 102 226.012 101.6 226.192 101.18L228.232 96.65V98.21L222.772 85.58C222.592 85.14 222.532 84.73 222.592 84.35C222.652 83.97 222.832 83.67 223.132 83.45C223.452 83.21 223.882 83.09 224.422 83.09C224.882 83.09 225.252 83.2 225.532 83.42C225.812 83.62 226.062 84.01 226.282 84.59L230.332 94.7H229.432L233.572 84.56C233.792 84 234.052 83.62 234.352 83.42C234.652 83.2 235.052 83.09 235.552 83.09C235.992 83.09 236.342 83.21 236.602 83.45C236.862 83.67 237.022 83.97 237.082 84.35C237.142 84.71 237.072 85.11 236.872 85.55L229.582 102.2C229.322 102.76 229.042 103.14 228.742 103.34C228.442 103.54 228.052 103.64 227.572 103.64ZM257.988 98.3C255.788 98.3 253.898 97.86 252.318 96.98C250.758 96.08 249.558 94.82 248.718 93.2C247.878 91.56 247.458 89.63 247.458 87.41C247.458 85.75 247.698 84.26 248.178 82.94C248.658 81.6 249.348 80.46 250.248 79.52C251.148 78.56 252.248 77.83 253.548 77.33C254.868 76.81 256.348 76.55 257.988 76.55C259.088 76.55 260.168 76.69 261.228 76.97C262.288 77.25 263.218 77.65 264.018 78.17C264.438 78.43 264.718 78.75 264.858 79.13C264.998 79.49 265.028 79.85 264.948 80.21C264.868 80.55 264.698 80.84 264.438 81.08C264.198 81.32 263.888 81.46 263.508 81.5C263.148 81.52 262.748 81.39 262.308 81.11C261.688 80.71 261.018 80.42 260.298 80.24C259.578 80.06 258.848 79.97 258.108 79.97C256.688 79.97 255.488 80.26 254.508 80.84C253.528 81.42 252.788 82.26 252.288 83.36C251.788 84.46 251.538 85.81 251.538 87.41C251.538 88.99 251.788 90.34 252.288 91.46C252.788 92.58 253.528 93.43 254.508 94.01C255.488 94.59 256.688 94.88 258.108 94.88C258.868 94.88 259.618 94.79 260.358 94.61C261.098 94.41 261.798 94.11 262.458 93.71C262.898 93.45 263.288 93.34 263.628 93.38C263.988 93.4 264.288 93.52 264.528 93.74C264.768 93.96 264.928 94.24 265.008 94.58C265.088 94.9 265.068 95.24 264.948 95.6C264.828 95.94 264.588 96.24 264.228 96.5C263.428 97.08 262.468 97.53 261.348 97.85C260.248 98.15 259.128 98.3 257.988 98.3ZM270.039 98.24C269.439 98.24 268.979 98.08 268.659 97.76C268.339 97.42 268.179 96.94 268.179 96.32V78.5C268.179 77.88 268.339 77.41 268.659 77.09C268.979 76.77 269.439 76.61 270.039 76.61C270.639 76.61 271.099 76.77 271.419 77.09C271.759 77.41 271.929 77.88 271.929 78.5V86.27H271.509C271.949 85.21 272.629 84.41 273.549 83.87C274.489 83.31 275.549 83.03 276.729 83.03C277.909 83.03 278.879 83.25 279.639 83.69C280.399 84.13 280.969 84.8 281.349 85.7C281.729 86.58 281.919 87.7 281.919 89.06V96.32C281.919 96.94 281.759 97.42 281.439 97.76C281.119 98.08 280.659 98.24 280.059 98.24C279.459 98.24 278.989 98.08 278.649 97.76C278.329 97.42 278.169 96.94 278.169 96.32V89.24C278.169 88.1 277.949 87.27 277.509 86.75C277.089 86.23 276.429 85.97 275.529 85.97C274.429 85.97 273.549 86.32 272.889 87.02C272.249 87.7 271.929 88.61 271.929 89.75V96.32C271.929 97.6 271.299 98.24 270.039 98.24ZM290.557 98.3C289.497 98.3 288.547 98.1 287.707 97.7C286.887 97.28 286.237 96.72 285.757 96.02C285.297 95.32 285.067 94.53 285.067 93.65C285.067 92.57 285.347 91.72 285.907 91.1C286.467 90.46 287.377 90 288.637 89.72C289.897 89.44 291.587 89.3 293.707 89.3H295.207V91.46H293.737C292.497 91.46 291.507 91.52 290.767 91.64C290.027 91.76 289.497 91.97 289.177 92.27C288.877 92.55 288.727 92.95 288.727 93.47C288.727 94.13 288.957 94.67 289.417 95.09C289.877 95.51 290.517 95.72 291.337 95.72C291.997 95.72 292.577 95.57 293.077 95.27C293.597 94.95 294.007 94.52 294.307 93.98C294.607 93.44 294.757 92.82 294.757 92.12V88.67C294.757 87.67 294.537 86.95 294.097 86.51C293.657 86.07 292.917 85.85 291.877 85.85C291.297 85.85 290.667 85.92 289.987 86.06C289.327 86.2 288.627 86.44 287.887 86.78C287.507 86.96 287.167 87.01 286.867 86.93C286.587 86.85 286.367 86.69 286.207 86.45C286.047 86.19 285.967 85.91 285.967 85.61C285.967 85.31 286.047 85.02 286.207 84.74C286.367 84.44 286.637 84.22 287.017 84.08C287.937 83.7 288.817 83.43 289.657 83.27C290.517 83.11 291.297 83.03 291.997 83.03C293.437 83.03 294.617 83.25 295.537 83.69C296.477 84.13 297.177 84.8 297.637 85.7C298.097 86.58 298.327 87.72 298.327 89.12V96.32C298.327 96.94 298.177 97.42 297.877 97.76C297.577 98.08 297.147 98.24 296.587 98.24C296.027 98.24 295.587 98.08 295.267 97.76C294.967 97.42 294.817 96.94 294.817 96.32V94.88H295.057C294.917 95.58 294.637 96.19 294.217 96.71C293.817 97.21 293.307 97.6 292.687 97.88C292.067 98.16 291.357 98.3 290.557 98.3ZM308.854 98.3C307.554 98.3 306.464 98.08 305.584 97.64C304.724 97.2 304.084 96.56 303.664 95.72C303.244 94.86 303.034 93.8 303.034 92.54V86.15H301.474C300.994 86.15 300.624 86.03 300.364 85.79C300.104 85.53 299.974 85.18 299.974 84.74C299.974 84.28 300.104 83.93 300.364 83.69C300.624 83.45 300.994 83.33 301.474 83.33H303.034V80.6C303.034 79.98 303.194 79.51 303.514 79.19C303.854 78.87 304.324 78.71 304.924 78.71C305.524 78.71 305.984 78.87 306.304 79.19C306.624 79.51 306.784 79.98 306.784 80.6V83.33H309.964C310.444 83.33 310.814 83.45 311.074 83.69C311.334 83.93 311.464 84.28 311.464 84.74C311.464 85.18 311.334 85.53 311.074 85.79C310.814 86.03 310.444 86.15 309.964 86.15H306.784V92.33C306.784 93.29 306.994 94.01 307.414 94.49C307.834 94.97 308.514 95.21 309.454 95.21C309.794 95.21 310.094 95.18 310.354 95.12C310.614 95.06 310.844 95.02 311.044 95C311.284 94.98 311.484 95.06 311.644 95.24C311.804 95.4 311.884 95.74 311.884 96.26C311.884 96.66 311.814 97.02 311.674 97.34C311.554 97.64 311.324 97.85 310.984 97.97C310.724 98.05 310.384 98.12 309.964 98.18C309.544 98.26 309.174 98.3 308.854 98.3Z" fill="#FFA559"/>
</g>
</g>
<g filter="url(#filter29_d_145_1398)">
<rect x="203.001" y="379.793" width="89" height="86" rx="20" transform="rotate(23.0962 203.001 379.793)" fill="#FFA559"/>
<g filter="url(#filter30_i_145_1398)">
<rect x="202.865" y="377.561" width="90" height="90" rx="15" transform="rotate(23.0962 202.865 377.561)" stroke="#FFA559" stroke-width="10"/>
</g>
<g filter="url(#filter31_d_145_1398)">
<path d="M236.363 447.183L240.217 438.147L234.326 423.784L236.324 419.097L240.177 420.74L241.237 418.254L237.385 416.612L238.71 413.503L235.82 412.27L234.494 415.379L230.642 413.736L229.582 416.222L233.434 417.865L231.39 422.658L217.1 428.288L213.292 437.218L206.768 439.789L201.554 452.014L213.894 457.276L217.145 449.653C217.906 447.867 220.207 447.137 222.282 448.021C224.358 448.907 225.422 451.072 224.66 452.858L221.409 460.481L233.749 465.743L238.962 453.518L236.363 447.183ZM222.795 438.14L219.872 436.894L220.945 434.379L223.867 435.625L222.795 438.14ZM231.98 442.057L229.058 440.811L230.13 438.296L233.053 439.542L231.98 442.057Z" fill="white"/>
</g>
</g>
<g filter="url(#filter32_d_145_1398)">
<rect x="46.4258" y="501.715" width="89" height="86" rx="20" transform="rotate(-25.4502 46.4258 501.715)" fill="#FFA559"/>
<g filter="url(#filter33_i_145_1398)">
<rect x="44.6634" y="500.339" width="90" height="90" rx="15" transform="rotate(-25.4502 44.6634 500.339)" stroke="#FFA559" stroke-width="10"/>
</g>
<g filter="url(#filter34_d_145_1398)">
<path d="M118.113 511.83C114.144 511.598 110.403 510.581 107.296 508.909L93.1008 515.664C92.4384 519.13 90.8689 522.675 88.5456 525.901L85.9642 527.129L87.306 529.949L122.036 513.421L120.694 510.601L118.113 511.83Z" fill="white"/>
<path d="M127.777 521.062C124.547 520.876 121.53 520.196 118.805 519.035L118.119 518.743L93.9062 530.266L93.7003 530.983C92.8827 533.829 91.5081 536.599 89.6151 539.224L87.015 540.461L88.3568 543.281L131.699 522.654L130.357 519.834L127.777 521.062Z" fill="white"/>
<path d="M103.021 502.875L91.1133 508.541L92.9023 512.301L104.81 506.634L103.021 502.875Z" fill="white"/>
<path d="M94.1843 543.965L97.7624 551.484L107.51 546.845L105.274 542.146L108.25 540.729L110.487 545.428L113.464 544.012L111.227 539.313L114.204 537.896L116.44 542.595L119.417 541.178L117.181 536.479L120.158 535.062L122.394 539.761L132.154 535.117L128.575 527.598L94.1843 543.965Z" fill="white"/>
<path d="M90.4533 491.837L96.7117 495.918L105.757 498.397L85.8923 507.851L89.6739 499.268L90.4533 491.837Z" fill="white"/>
</g>
</g>
<g filter="url(#filter35_d_145_1398)">
<rect x="269.905" y="513.789" width="89" height="86" rx="20" transform="rotate(23.03 269.905 513.789)" fill="#FFA559"/>
<g filter="url(#filter36_i_145_1398)">
<rect x="269.767" y="511.558" width="90" height="90" rx="15" transform="rotate(23.03 269.767 511.558)" stroke="#FFA559" stroke-width="10"/>
</g>
<g filter="url(#filter37_d_145_1398)">
<path d="M301.938 550.905C294.211 547.65 286.966 543.259 280.349 537.788C280.327 538.08 280.308 538.373 280.285 538.666C280.041 541.756 279.741 544.843 279.297 547.913C279.195 548.614 279.091 549.313 278.991 550.014C280.912 551.397 282.877 552.704 284.879 553.935C284.822 554.399 284.76 554.863 284.693 555.327C284.628 555.777 284.561 556.227 284.497 556.676C285.235 557.208 285.984 557.722 286.741 558.219C286.15 559.882 285.307 562.108 284.21 564.657L277.658 561.872L277.88 564.92L283.104 567.14C280.113 573.635 275.679 581.536 269.765 587.619L273.892 589.373C278.481 584.349 282.673 577.866 286.395 570.019C286.593 569.602 286.784 569.191 286.971 568.784L299.449 574.088C299.286 574.505 299.122 574.929 298.959 575.36C295.892 583.486 294.132 591.002 293.699 597.793L297.826 599.547C298.103 591.068 300.715 582.392 303.316 575.732L308.539 577.953L310.888 575.998L304.336 573.213C305.411 570.654 306.429 568.503 307.216 566.923C308.099 567.123 308.989 567.306 309.884 567.468C310.163 567.11 310.441 566.75 310.72 566.391C311.007 566.021 311.298 565.654 311.593 565.29C313.869 565.878 316.173 566.386 318.502 566.81C318.937 566.251 319.369 565.691 319.802 565.132C321.705 562.681 323.72 560.323 325.776 558.004C325.97 557.784 326.168 557.567 326.364 557.348C317.832 556.38 309.643 554.209 301.938 550.905ZM290.402 560.443C292.065 561.376 293.768 562.228 295.506 563.001L293.18 568.471L288.075 566.3C289.04 564.057 289.814 562.058 290.402 560.443ZM300.471 571.57L295.366 569.4L297.691 563.93C299.453 564.645 301.248 565.28 303.074 565.83C302.319 567.374 301.417 569.318 300.471 571.57Z" fill="white"/>
</g>
</g>
<g filter="url(#filter38_d_145_1398)">
<rect x="272.722" y="259.909" width="89" height="86" rx="20" transform="rotate(25.6895 272.722 259.909)" fill="#FFA559"/>
<g filter="url(#filter39_i_145_1398)">
<rect x="272.688" y="257.673" width="90" height="90" rx="15" transform="rotate(25.6895 272.688 257.673)" stroke="#FFA559" stroke-width="10"/>
</g>
<g clip-path="url(#clip1_145_1398)" filter="url(#filter40_d_145_1398)">
<path d="M316.213 327.452C315.774 326.96 315.081 326.781 314.457 327C312.059 327.84 309.478 327.696 307.189 326.595L303.995 325.058L307.352 318.078C312.678 319.756 318.582 317.321 321.071 312.146C321.358 311.551 321.258 310.842 320.817 310.351C320.38 309.858 319.685 309.68 319.061 309.898C316.663 310.739 314.082 310.595 311.793 309.493L307.916 307.628L306.399 296.84C306.247 295.758 304.892 295.106 303.952 295.662L294.577 301.211L290.699 299.346C288.41 298.245 286.686 296.318 285.846 293.921C285.627 293.297 285.056 292.867 284.397 292.831C283.738 292.794 283.122 293.158 282.836 293.753C282.019 295.451 281.631 297.337 281.716 299.208C281.88 302.869 283.775 306.179 286.76 308.182L283.406 315.154L280.212 313.618C277.923 312.517 276.199 310.59 275.359 308.192C275.141 307.569 274.568 307.139 273.91 307.102C273.251 307.065 272.635 307.429 272.348 308.024C271.531 309.723 271.144 311.609 271.229 313.479C271.393 317.141 273.288 320.45 276.273 322.454L271.268 332.857C270.877 333.67 271.219 334.645 272.031 335.035L277.914 337.865L281.451 330.512C281.842 329.7 282.817 329.358 283.629 329.749C284.441 330.139 284.783 331.115 284.392 331.927L280.855 339.28L286.737 342.11L290.275 334.757C290.665 333.944 291.641 333.603 292.453 333.994C293.265 334.384 293.607 335.359 293.216 336.172L289.679 343.525L295.561 346.354C296.373 346.745 297.348 346.403 297.739 345.591L302.748 335.179C308.073 336.858 313.977 334.423 316.467 329.247C316.753 328.652 316.653 327.944 316.213 327.452ZM284.977 299.062L284.977 299.061C284.975 299.014 284.973 298.967 284.972 298.92C286.132 300.325 287.594 301.474 289.284 302.287L310.378 312.435C312.068 313.247 313.877 313.672 315.697 313.702C313.335 315.481 310.084 315.915 307.24 314.547L289.593 306.058C286.879 304.752 285.111 302.072 284.977 299.062ZM296.35 318.363L295.171 320.814L292.23 319.399L293.409 316.948C293.799 316.136 294.775 315.794 295.587 316.185C296.399 316.575 296.741 317.55 296.35 318.363ZM302.635 331.648L279.106 320.329C276.392 319.024 274.623 316.344 274.489 313.333L274.49 313.333C274.487 313.286 274.486 313.238 274.484 313.192C275.644 314.596 277.106 315.746 278.797 316.559L292.285 323.048L305.774 329.536C307.464 330.349 309.272 330.774 311.092 330.803C308.73 332.583 305.479 333.016 302.635 331.648Z" fill="white"/>
</g>
</g>
<defs>
<filter id="filter0_d_145_1398" x="-10.7952" y="223.205" width="155.641" height="155.641" filterUnits="userSpaceOnUse" color-interpolation-filters="sRGB">
<feFlood flood-opacity="0" result="BackgroundImageFix"/>
<feColorMatrix in="SourceAlpha" type="matrix" values="0 0 0 0 0 0 0 0 0 0 0 0 0 0 0 0 0 0 127 0" result="hardAlpha"/>
<feOffset/>
<feGaussianBlur stdDeviation="10"/>
<feComposite in2="hardAlpha" operator="out"/>
<feColorMatrix type="matrix" values="0 0 0 0 1 0 0 0 0 0.376471 0 0 0 0 0 0 0 0 1 0"/>
<feBlend mode="normal" in2="BackgroundImageFix" result="effect1_dropShadow_145_1398"/>
<feBlend mode="normal" in="SourceGraphic" in2="effect1_dropShadow_145_1398" result="shape"/>
</filter>
<filter id="filter1_i_145_1398" x="9.20477" y="243.205" width="115.641" height="115.641" filterUnits="userSpaceOnUse" color-interpolation-filters="sRGB">
<feFlood flood-opacity="0" result="BackgroundImageFix"/>
<feBlend mode="normal" in="SourceGraphic" in2="BackgroundImageFix" result="shape"/>
<feColorMatrix in="SourceAlpha" type="matrix" values="0 0 0 0 0 0 0 0 0 0 0 0 0 0 0 0 0 0 127 0" result="hardAlpha"/>
<feOffset/>
<feGaussianBlur stdDeviation="5"/>
<feComposite in2="hardAlpha" operator="arithmetic" k2="-1" k3="1"/>
<feColorMatrix type="matrix" values="0 0 0 0 0 0 0 0 0 0 0 0 0 0 0 0 0 0 0.25 0"/>
<feBlend mode="normal" in2="shape" result="effect1_innerShadow_145_1398"/>
</filter>
<filter id="filter2_d_145_1398" x="33.4492" y="277.547" width="71.9164" height="63.9121" filterUnits="userSpaceOnUse" color-interpolation-filters="sRGB">
<feFlood flood-opacity="0" result="BackgroundImageFix"/>
<feColorMatrix in="SourceAlpha" type="matrix" values="0 0 0 0 0 0 0 0 0 0 0 0 0 0 0 0 0 0 127 0" result="hardAlpha"/>
<feOffset dy="4"/>
<feGaussianBlur stdDeviation="2"/>
<feComposite in2="hardAlpha" operator="out"/>
<feColorMatrix type="matrix" values="0 0 0 0 0 0 0 0 0 0 0 0 0 0 0 0 0 0 0.25 0"/>
<feBlend mode="normal" in2="BackgroundImageFix" result="effect1_dropShadow_145_1398"/>
<feBlend mode="normal" in="SourceGraphic" in2="effect1_dropShadow_145_1398" result="shape"/>
</filter>
<filter id="filter3_d_145_1398" x="5.44888" y="399.449" width="67.3599" height="67.3598" filterUnits="userSpaceOnUse" color-interpolation-filters="sRGB">
<feFlood flood-opacity="0" result="BackgroundImageFix"/>
<feColorMatrix in="SourceAlpha" type="matrix" values="0 0 0 0 0 0 0 0 0 0 0 0 0 0 0 0 0 0 127 0" result="hardAlpha"/>
<feOffset/>
<feGaussianBlur stdDeviation="2.5"/>
<feComposite in2="hardAlpha" operator="out"/>
<feColorMatrix type="matrix" values="0 0 0 0 1 0 0 0 0 0.376471 0 0 0 0 0 0 0 0 1 0"/>
<feBlend mode="normal" in2="BackgroundImageFix" result="effect1_dropShadow_145_1398"/>
<feBlend mode="normal" in="SourceGraphic" in2="effect1_dropShadow_145_1398" result="shape"/>
</filter>
<filter id="filter4_i_145_1398" x="10.4489" y="404.449" width="57.3599" height="57.3598" filterUnits="userSpaceOnUse" color-interpolation-filters="sRGB">
<feFlood flood-opacity="0" result="BackgroundImageFix"/>
<feBlend mode="normal" in="SourceGraphic" in2="BackgroundImageFix" result="shape"/>
<feColorMatrix in="SourceAlpha" type="matrix" values="0 0 0 0 0 0 0 0 0 0 0 0 0 0 0 0 0 0 127 0" result="hardAlpha"/>
<feOffset/>
<feGaussianBlur stdDeviation="5"/>
<feComposite in2="hardAlpha" operator="arithmetic" k2="-1" k3="1"/>
<feColorMatrix type="matrix" values="0 0 0 0 0 0 0 0 0 0 0 0 0 0 0 0 0 0 0.25 0"/>
<feBlend mode="normal" in2="shape" result="effect1_innerShadow_145_1398"/>
</filter>
<filter id="filter5_d_145_1398" x="-4.91544" y="145.085" width="96.2653" height="96.2653" filterUnits="userSpaceOnUse" color-interpolation-filters="sRGB">
<feFlood flood-opacity="0" result="BackgroundImageFix"/>
<feColorMatrix in="SourceAlpha" type="matrix" values="0 0 0 0 0 0 0 0 0 0 0 0 0 0 0 0 0 0 127 0" result="hardAlpha"/>
<feOffset/>
<feGaussianBlur stdDeviation="10"/>
<feComposite in2="hardAlpha" operator="out"/>
<feColorMatrix type="matrix" values="0 0 0 0 1 0 0 0 0 0.376471 0 0 0 0 0 0 0 0 1 0"/>
<feBlend mode="normal" in2="BackgroundImageFix" result="effect1_dropShadow_145_1398"/>
<feBlend mode="normal" in="SourceGraphic" in2="effect1_dropShadow_145_1398" result="shape"/>
</filter>
<filter id="filter6_i_145_1398" x="15.0846" y="165.085" width="56.2653" height="56.2653" filterUnits="userSpaceOnUse" color-interpolation-filters="sRGB">
<feFlood flood-opacity="0" result="BackgroundImageFix"/>
<feBlend mode="normal" in="SourceGraphic" in2="BackgroundImageFix" result="shape"/>
<feColorMatrix in="SourceAlpha" type="matrix" values="0 0 0 0 0 0 0 0 0 0 0 0 0 0 0 0 0 0 127 0" result="hardAlpha"/>
<feOffset/>
<feGaussianBlur stdDeviation="5"/>
<feComposite in2="hardAlpha" operator="arithmetic" k2="-1" k3="1"/>
<feColorMatrix type="matrix" values="0 0 0 0 0 0 0 0 0 0 0 0 0 0 0 0 0 0 0.25 0"/>
<feBlend mode="normal" in2="shape" result="effect1_innerShadow_145_1398"/>
</filter>
<filter id="filter7_d_145_1398" x="298.353" y="450.353" width="45.4218" height="45.4218" filterUnits="userSpaceOnUse" color-interpolation-filters="sRGB">
<feFlood flood-opacity="0" result="BackgroundImageFix"/>
<feColorMatrix in="SourceAlpha" type="matrix" values="0 0 0 0 0 0 0 0 0 0 0 0 0 0 0 0 0 0 127 0" result="hardAlpha"/>
<feOffset/>
<feGaussianBlur stdDeviation="2.5"/>
<feComposite in2="hardAlpha" operator="out"/>
<feColorMatrix type="matrix" values="0 0 0 0 1 0 0 0 0 0.376471 0 0 0 0 0 0 0 0 1 0"/>
<feBlend mode="normal" in2="BackgroundImageFix" result="effect1_dropShadow_145_1398"/>
<feBlend mode="normal" in="SourceGraphic" in2="effect1_dropShadow_145_1398" result="shape"/>
</filter>
<filter id="filter8_i_145_1398" x="303.353" y="455.353" width="35.4218" height="35.4218" filterUnits="userSpaceOnUse" color-interpolation-filters="sRGB">
<feFlood flood-opacity="0" result="BackgroundImageFix"/>
<feBlend mode="normal" in="SourceGraphic" in2="BackgroundImageFix" result="shape"/>
<feColorMatrix in="SourceAlpha" type="matrix" values="0 0 0 0 0 0 0 0 0 0 0 0 0 0 0 0 0 0 127 0" result="hardAlpha"/>
<feOffset/>
<feGaussianBlur stdDeviation="5"/>
<feComposite in2="hardAlpha" operator="arithmetic" k2="-1" k3="1"/>
<feColorMatrix type="matrix" values="0 0 0 0 0 0 0 0 0 0 0 0 0 0 0 0 0 0 0.25 0"/>
<feBlend mode="normal" in2="shape" result="effect1_innerShadow_145_1398"/>
</filter>
<filter id="filter9_d_145_1398" x="120.353" y="200.353" width="45.4218" height="45.4218" filterUnits="userSpaceOnUse" color-interpolation-filters="sRGB">
<feFlood flood-opacity="0" result="BackgroundImageFix"/>
<feColorMatrix in="SourceAlpha" type="matrix" values="0 0 0 0 0 0 0 0 0 0 0 0 0 0 0 0 0 0 127 0" result="hardAlpha"/>
<feOffset/>
<feGaussianBlur stdDeviation="2.5"/>
<feComposite in2="hardAlpha" operator="out"/>
<feColorMatrix type="matrix" values="0 0 0 0 1 0 0 0 0 0.376471 0 0 0 0 0 0 0 0 1 0"/>
<feBlend mode="normal" in2="BackgroundImageFix" result="effect1_dropShadow_145_1398"/>
<feBlend mode="normal" in="SourceGraphic" in2="effect1_dropShadow_145_1398" result="shape"/>
</filter>
<filter id="filter10_i_145_1398" x="125.353" y="205.353" width="35.4218" height="35.4218" filterUnits="userSpaceOnUse" color-interpolation-filters="sRGB">
<feFlood flood-opacity="0" result="BackgroundImageFix"/>
<feBlend mode="normal" in="SourceGraphic" in2="BackgroundImageFix" result="shape"/>
<feColorMatrix in="SourceAlpha" type="matrix" values="0 0 0 0 0 0 0 0 0 0 0 0 0 0 0 0 0 0 127 0" result="hardAlpha"/>
<feOffset/>
<feGaussianBlur stdDeviation="5"/>
<feComposite in2="hardAlpha" operator="arithmetic" k2="-1" k3="1"/>
<feColorMatrix type="matrix" values="0 0 0 0 0 0 0 0 0 0 0 0 0 0 0 0 0 0 0.25 0"/>
<feBlend mode="normal" in2="shape" result="effect1_innerShadow_145_1398"/>
</filter>
<filter id="filter11_d_145_1398" x="112.353" y="370.353" width="45.4218" height="45.4218" filterUnits="userSpaceOnUse" color-interpolation-filters="sRGB">
<feFlood flood-opacity="0" result="BackgroundImageFix"/>
<feColorMatrix in="SourceAlpha" type="matrix" values="0 0 0 0 0 0 0 0 0 0 0 0 0 0 0 0 0 0 127 0" result="hardAlpha"/>
<feOffset/>
<feGaussianBlur stdDeviation="2.5"/>
<feComposite in2="hardAlpha" operator="out"/>
<feColorMatrix type="matrix" values="0 0 0 0 1 0 0 0 0 0.376471 0 0 0 0 0 0 0 0 1 0"/>
<feBlend mode="normal" in2="BackgroundImageFix" result="effect1_dropShadow_145_1398"/>
<feBlend mode="normal" in="SourceGraphic" in2="effect1_dropShadow_145_1398" result="shape"/>
</filter>
<filter id="filter12_i_145_1398" x="117.353" y="375.353" width="35.4218" height="35.4218" filterUnits="userSpaceOnUse" color-interpolation-filters="sRGB">
<feFlood flood-opacity="0" result="BackgroundImageFix"/>
<feBlend mode="normal" in="SourceGraphic" in2="BackgroundImageFix" result="shape"/>
<feColorMatrix in="SourceAlpha" type="matrix" values="0 0 0 0 0 0 0 0 0 0 0 0 0 0 0 0 0 0 127 0" result="hardAlpha"/>
<feOffset/>
<feGaussianBlur stdDeviation="5"/>
<feComposite in2="hardAlpha" operator="arithmetic" k2="-1" k3="1"/>
<feColorMatrix type="matrix" values="0 0 0 0 0 0 0 0 0 0 0 0 0 0 0 0 0 0 0.25 0"/>
<feBlend mode="normal" in2="shape" result="effect1_innerShadow_145_1398"/>
</filter>
<filter id="filter13_d_145_1398" x="197.184" y="172.185" width="40.7385" height="40.7384" filterUnits="userSpaceOnUse" color-interpolation-filters="sRGB">
<feFlood flood-opacity="0" result="BackgroundImageFix"/>
<feColorMatrix in="SourceAlpha" type="matrix" values="0 0 0 0 0 0 0 0 0 0 0 0 0 0 0 0 0 0 127 0" result="hardAlpha"/>
<feOffset/>
<feGaussianBlur stdDeviation="2.5"/>
<feComposite in2="hardAlpha" operator="out"/>
<feColorMatrix type="matrix" values="0 0 0 0 1 0 0 0 0 0.376471 0 0 0 0 0 0 0 0 1 0"/>
<feBlend mode="normal" in2="BackgroundImageFix" result="effect1_dropShadow_145_1398"/>
<feBlend mode="normal" in="SourceGraphic" in2="effect1_dropShadow_145_1398" result="shape"/>
</filter>
<filter id="filter14_i_145_1398" x="202.184" y="177.185" width="30.7385" height="30.7384" filterUnits="userSpaceOnUse" color-interpolation-filters="sRGB">
<feFlood flood-opacity="0" result="BackgroundImageFix"/>
<feBlend mode="normal" in="SourceGraphic" in2="BackgroundImageFix" result="shape"/>
<feColorMatrix in="SourceAlpha" type="matrix" values="0 0 0 0 0 0 0 0 0 0 0 0 0 0 0 0 0 0 127 0" result="hardAlpha"/>
<feOffset/>
<feGaussianBlur stdDeviation="5"/>
<feComposite in2="hardAlpha" operator="arithmetic" k2="-1" k3="1"/>
<feColorMatrix type="matrix" values="0 0 0 0 0 0 0 0 0 0 0 0 0 0 0 0 0 0 0.25 0"/>
<feBlend mode="normal" in2="shape" result="effect1_innerShadow_145_1398"/>
</filter>
<filter id="filter15_d_145_1398" x="235.029" y="778.029" width="48.118" height="48.118" filterUnits="userSpaceOnUse" color-interpolation-filters="sRGB">
<feFlood flood-opacity="0" result="BackgroundImageFix"/>
<feColorMatrix in="SourceAlpha" type="matrix" values="0 0 0 0 0 0 0 0 0 0 0 0 0 0 0 0 0 0 127 0" result="hardAlpha"/>
<feOffset/>
<feGaussianBlur stdDeviation="2.5"/>
<feComposite in2="hardAlpha" operator="out"/>
<feColorMatrix type="matrix" values="0 0 0 0 1 0 0 0 0 0.376471 0 0 0 0 0 0 0 0 1 0"/>
<feBlend mode="normal" in2="BackgroundImageFix" result="effect1_dropShadow_145_1398"/>
<feBlend mode="normal" in="SourceGraphic" in2="effect1_dropShadow_145_1398" result="shape"/>
</filter>
<filter id="filter16_i_145_1398" x="240.029" y="783.029" width="38.118" height="38.118" filterUnits="userSpaceOnUse" color-interpolation-filters="sRGB">
<feFlood flood-opacity="0" result="BackgroundImageFix"/>
<feBlend mode="normal" in="SourceGraphic" in2="BackgroundImageFix" result="shape"/>
<feColorMatrix in="SourceAlpha" type="matrix" values="0 0 0 0 0 0 0 0 0 0 0 0 0 0 0 0 0 0 127 0" result="hardAlpha"/>
<feOffset/>
<feGaussianBlur stdDeviation="5"/>
<feComposite in2="hardAlpha" operator="arithmetic" k2="-1" k3="1"/>
<feColorMatrix type="matrix" values="0 0 0 0 0 0 0 0 0 0 0 0 0 0 0 0 0 0 0.25 0"/>
<feBlend mode="normal" in2="shape" result="effect1_innerShadow_145_1398"/>
</filter>
<filter id="filter17_d_145_1398" x="-2.97079" y="752.029" width="48.118" height="48.118" filterUnits="userSpaceOnUse" color-interpolation-filters="sRGB">
<feFlood flood-opacity="0" result="BackgroundImageFix"/>
<feColorMatrix in="SourceAlpha" type="matrix" values="0 0 0 0 0 0 0 0 0 0 0 0 0 0 0 0 0 0 127 0" result="hardAlpha"/>
<feOffset/>
<feGaussianBlur stdDeviation="2.5"/>
<feComposite in2="hardAlpha" operator="out"/>
<feColorMatrix type="matrix" values="0 0 0 0 1 0 0 0 0 0.376471 0 0 0 0 0 0 0 0 1 0"/>
<feBlend mode="normal" in2="BackgroundImageFix" result="effect1_dropShadow_145_1398"/>
<feBlend mode="normal" in="SourceGraphic" in2="effect1_dropShadow_145_1398" result="shape"/>
</filter>
<filter id="filter18_i_145_1398" x="2.02921" y="757.029" width="38.118" height="38.118" filterUnits="userSpaceOnUse" color-interpolation-filters="sRGB">
<feFlood flood-opacity="0" result="BackgroundImageFix"/>
<feBlend mode="normal" in="SourceGraphic" in2="BackgroundImageFix" result="shape"/>
<feColorMatrix in="SourceAlpha" type="matrix" values="0 0 0 0 0 0 0 0 0 0 0 0 0 0 0 0 0 0 127 0" result="hardAlpha"/>
<feOffset/>
<feGaussianBlur stdDeviation="5"/>
<feComposite in2="hardAlpha" operator="arithmetic" k2="-1" k3="1"/>
<feColorMatrix type="matrix" values="0 0 0 0 0 0 0 0 0 0 0 0 0 0 0 0 0 0 0.25 0"/>
<feBlend mode="normal" in2="shape" result="effect1_innerShadow_145_1398"/>
</filter>
<filter id="filter19_d_145_1398" x="-17.9708" y="737.029" width="78.118" height="78.118" filterUnits="userSpaceOnUse" color-interpolation-filters="sRGB">
<feFlood flood-opacity="0" result="BackgroundImageFix"/>
<feColorMatrix in="SourceAlpha" type="matrix" values="0 0 0 0 0 0 0 0 0 0 0 0 0 0 0 0 0 0 127 0" result="hardAlpha"/>
<feOffset/>
<feGaussianBlur stdDeviation="10"/>
<feComposite in2="hardAlpha" operator="out"/>
<feColorMatrix type="matrix" values="0 0 0 0 1 0 0 0 0 0.376471 0 0 0 0 0 0 0 0 1 0"/>
<feBlend mode="normal" in2="BackgroundImageFix" result="effect1_dropShadow_145_1398"/>
<feBlend mode="normal" in="SourceGraphic" in2="effect1_dropShadow_145_1398" result="shape"/>
</filter>
<filter id="filter20_i_145_1398" x="2.02921" y="757.029" width="38.118" height="38.118" filterUnits="userSpaceOnUse" color-interpolation-filters="sRGB">
<feFlood flood-opacity="0" result="BackgroundImageFix"/>
<feBlend mode="normal" in="SourceGraphic" in2="BackgroundImageFix" result="shape"/>
<feColorMatrix in="SourceAlpha" type="matrix" values="0 0 0 0 0 0 0 0 0 0 0 0 0 0 0 0 0 0 127 0" result="hardAlpha"/>
<feOffset/>
<feGaussianBlur stdDeviation="5"/>
<feComposite in2="hardAlpha" operator="arithmetic" k2="-1" k3="1"/>
<feColorMatrix type="matrix" values="0 0 0 0 0 0 0 0 0 0 0 0 0 0 0 0 0 0 0.25 0"/>
<feBlend mode="normal" in2="shape" result="effect1_innerShadow_145_1398"/>
</filter>
<filter id="filter21_d_145_1398" x="298.969" y="696.969" width="77.8788" height="77.8789" filterUnits="userSpaceOnUse" color-interpolation-filters="sRGB">
<feFlood flood-opacity="0" result="BackgroundImageFix"/>
<feColorMatrix in="SourceAlpha" type="matrix" values="0 0 0 0 0 0 0 0 0 0 0 0 0 0 0 0 0 0 127 0" result="hardAlpha"/>
<feOffset/>
<feGaussianBlur stdDeviation="10"/>
<feComposite in2="hardAlpha" operator="out"/>
<feColorMatrix type="matrix" values="0 0 0 0 1 0 0 0 0 0.376471 0 0 0 0 0 0 0 0 1 0"/>
<feBlend mode="normal" in2="BackgroundImageFix" result="effect1_dropShadow_145_1398"/>
<feBlend mode="normal" in="SourceGraphic" in2="effect1_dropShadow_145_1398" result="shape"/>
</filter>
<filter id="filter22_i_145_1398" x="318.969" y="716.969" width="37.8788" height="37.8789" filterUnits="userSpaceOnUse" color-interpolation-filters="sRGB">
<feFlood flood-opacity="0" result="BackgroundImageFix"/>
<feBlend mode="normal" in="SourceGraphic" in2="BackgroundImageFix" result="shape"/>
<feColorMatrix in="SourceAlpha" type="matrix" values="0 0 0 0 0 0 0 0 0 0 0 0 0 0 0 0 0 0 127 0" result="hardAlpha"/>
<feOffset/>
<feGaussianBlur stdDeviation="5"/>
<feComposite in2="hardAlpha" operator="arithmetic" k2="-1" k3="1"/>
<feColorMatrix type="matrix" values="0 0 0 0 0 0 0 0 0 0 0 0 0 0 0 0 0 0 0.25 0"/>
<feBlend mode="normal" in2="shape" result="effect1_innerShadow_145_1398"/>
</filter>
<filter id="filter23_d_145_1398" x="237.678" y="125.678" width="128.401" height="128.401" filterUnits="userSpaceOnUse" color-interpolation-filters="sRGB">
<feFlood flood-opacity="0" result="BackgroundImageFix"/>
<feColorMatrix in="SourceAlpha" type="matrix" values="0 0 0 0 0 0 0 0 0 0 0 0 0 0 0 0 0 0 127 0" result="hardAlpha"/>
<feOffset/>
<feGaussianBlur stdDeviation="10"/>
<feComposite in2="hardAlpha" operator="out"/>
<feColorMatrix type="matrix" values="0 0 0 0 1 0 0 0 0 0.376471 0 0 0 0 0 0 0 0 1 0"/>
<feBlend mode="normal" in2="BackgroundImageFix" result="effect1_dropShadow_145_1398"/>
<feBlend mode="normal" in="SourceGraphic" in2="effect1_dropShadow_145_1398" result="shape"/>
</filter>
<filter id="filter24_i_145_1398" x="257.678" y="145.678" width="88.4015" height="88.4015" filterUnits="userSpaceOnUse" color-interpolation-filters="sRGB">
<feFlood flood-opacity="0" result="BackgroundImageFix"/>
<feBlend mode="normal" in="SourceGraphic" in2="BackgroundImageFix" result="shape"/>
<feColorMatrix in="SourceAlpha" type="matrix" values="0 0 0 0 0 0 0 0 0 0 0 0 0 0 0 0 0 0 127 0" result="hardAlpha"/>
<feOffset/>
<feGaussianBlur stdDeviation="5"/>
<feComposite in2="hardAlpha" operator="arithmetic" k2="-1" k3="1"/>
<feColorMatrix type="matrix" values="0 0 0 0 0 0 0 0 0 0 0 0 0 0 0 0 0 0 0.25 0"/>
<feBlend mode="normal" in2="shape" result="effect1_innerShadow_145_1398"/>
</filter>
<filter id="filter25_d_145_1398" x="132.073" y="246.073" width="100.366" height="100.366" filterUnits="userSpaceOnUse" color-interpolation-filters="sRGB">
<feFlood flood-opacity="0" result="BackgroundImageFix"/>
<feColorMatrix in="SourceAlpha" type="matrix" values="0 0 0 0 0 0 0 0 0 0 0 0 0 0 0 0 0 0 127 0" result="hardAlpha"/>
<feOffset/>
<feGaussianBlur stdDeviation="2.5"/>
<feComposite in2="hardAlpha" operator="out"/>
<feColorMatrix type="matrix" values="0 0 0 0 1 0 0 0 0 0.376471 0 0 0 0 0 0 0 0 1 0"/>
<feBlend mode="normal" in2="BackgroundImageFix" result="effect1_dropShadow_145_1398"/>
<feBlend mode="normal" in="SourceGraphic" in2="effect1_dropShadow_145_1398" result="shape"/>
</filter>
<filter id="filter26_i_145_1398" x="137.073" y="251.073" width="90.3657" height="90.3657" filterUnits="userSpaceOnUse" color-interpolation-filters="sRGB">
<feFlood flood-opacity="0" result="BackgroundImageFix"/>
<feBlend mode="normal" in="SourceGraphic" in2="BackgroundImageFix" result="shape"/>
<feColorMatrix in="SourceAlpha" type="matrix" values="0 0 0 0 0 0 0 0 0 0 0 0 0 0 0 0 0 0 127 0" result="hardAlpha"/>
<feOffset/>
<feGaussianBlur stdDeviation="5"/>
<feComposite in2="hardAlpha" operator="arithmetic" k2="-1" k3="1"/>
<feColorMatrix type="matrix" values="0 0 0 0 0 0 0 0 0 0 0 0 0 0 0 0 0 0 0.25 0"/>
<feBlend mode="normal" in2="shape" result="effect1_innerShadow_145_1398"/>
</filter>
<filter id="filter27_d_145_1398" x="27" y="39" width="100" height="100" filterUnits="userSpaceOnUse" color-interpolation-filters="sRGB">
<feFlood flood-opacity="0" result="BackgroundImageFix"/>
<feColorMatrix in="SourceAlpha" type="matrix" values="0 0 0 0 0 0 0 0 0 0 0 0 0 0 0 0 0 0 127 0" result="hardAlpha"/>
<feOffset/>
<feGaussianBlur stdDeviation="10"/>
<feComposite in2="hardAlpha" operator="out"/>
<feColorMatrix type="matrix" values="0 0 0 0 1 0 0 0 0 0.647059 0 0 0 0 0.34902 0 0 0 1 0"/>
<feBlend mode="normal" in2="BackgroundImageFix" result="effect1_dropShadow_145_1398"/>
<feBlend mode="normal" in="SourceGraphic" in2="effect1_dropShadow_145_1398" result="shape"/>
</filter>
<filter id="filter28_d_145_1398" x="113.41" y="66.37" width="208.474" height="47.27" filterUnits="userSpaceOnUse" color-interpolation-filters="sRGB">
<feFlood flood-opacity="0" result="BackgroundImageFix"/>
<feColorMatrix in="SourceAlpha" type="matrix" values="0 0 0 0 0 0 0 0 0 0 0 0 0 0 0 0 0 0 127 0" result="hardAlpha"/>
<feOffset/>
<feGaussianBlur stdDeviation="5"/>
<feComposite in2="hardAlpha" operator="out"/>
<feColorMatrix type="matrix" values="0 0 0 0 1 0 0 0 0 0.376471 0 0 0 0 0 0 0 0 1 0"/>
<feBlend mode="normal" in2="BackgroundImageFix" result="effect1_dropShadow_145_1398"/>
<feBlend mode="normal" in="SourceGraphic" in2="effect1_dropShadow_145_1398" result="shape"/>
</filter>
<filter id="filter29_d_145_1398" x="147.237" y="357.237" width="158.738" height="158.738" filterUnits="userSpaceOnUse" color-interpolation-filters="sRGB">
<feFlood flood-opacity="0" result="BackgroundImageFix"/>
<feColorMatrix in="SourceAlpha" type="matrix" values="0 0 0 0 0 0 0 0 0 0 0 0 0 0 0 0 0 0 127 0" result="hardAlpha"/>
<feOffset/>
<feGaussianBlur stdDeviation="10"/>
<feComposite in2="hardAlpha" operator="out"/>
<feColorMatrix type="matrix" values="0 0 0 0 1 0 0 0 0 0.376471 0 0 0 0 0 0 0 0 1 0"/>
<feBlend mode="normal" in2="BackgroundImageFix" result="effect1_dropShadow_145_1398"/>
<feBlend mode="normal" in="SourceGraphic" in2="effect1_dropShadow_145_1398" result="shape"/>
</filter>
<filter id="filter30_i_145_1398" x="167.237" y="377.237" width="118.738" height="118.738" filterUnits="userSpaceOnUse" color-interpolation-filters="sRGB">
<feFlood flood-opacity="0" result="BackgroundImageFix"/>
<feBlend mode="normal" in="SourceGraphic" in2="BackgroundImageFix" result="shape"/>
<feColorMatrix in="SourceAlpha" type="matrix" values="0 0 0 0 0 0 0 0 0 0 0 0 0 0 0 0 0 0 127 0" result="hardAlpha"/>
<feOffset/>
<feGaussianBlur stdDeviation="5"/>
<feComposite in2="hardAlpha" operator="arithmetic" k2="-1" k3="1"/>
<feColorMatrix type="matrix" values="0 0 0 0 0 0 0 0 0 0 0 0 0 0 0 0 0 0 0.25 0"/>
<feBlend mode="normal" in2="shape" result="effect1_innerShadow_145_1398"/>
</filter>
<filter id="filter31_d_145_1398" x="197.554" y="412.27" width="47.6826" height="61.4734" filterUnits="userSpaceOnUse" color-interpolation-filters="sRGB">
<feFlood flood-opacity="0" result="BackgroundImageFix"/>
<feColorMatrix in="SourceAlpha" type="matrix" values="0 0 0 0 0 0 0 0 0 0 0 0 0 0 0 0 0 0 127 0" result="hardAlpha"/>
<feOffset dy="4"/>
<feGaussianBlur stdDeviation="2"/>
<feComposite in2="hardAlpha" operator="out"/>
<feColorMatrix type="matrix" values="0 0 0 0 0 0 0 0 0 0 0 0 0 0 0 0 0 0 0.25 0"/>
<feBlend mode="normal" in2="BackgroundImageFix" result="effect1_dropShadow_145_1398"/>
<feBlend mode="normal" in="SourceGraphic" in2="effect1_dropShadow_145_1398" result="shape"/>
</filter>
<filter id="filter32_d_145_1398" x="24.649" y="441.649" width="159.97" height="159.97" filterUnits="userSpaceOnUse" color-interpolation-filters="sRGB">
<feFlood flood-opacity="0" result="BackgroundImageFix"/>
<feColorMatrix in="SourceAlpha" type="matrix" values="0 0 0 0 0 0 0 0 0 0 0 0 0 0 0 0 0 0 127 0" result="hardAlpha"/>
<feOffset/>
<feGaussianBlur stdDeviation="10"/>
<feComposite in2="hardAlpha" operator="out"/>
<feColorMatrix type="matrix" values="0 0 0 0 1 0 0 0 0 0.376471 0 0 0 0 0 0 0 0 1 0"/>
<feBlend mode="normal" in2="BackgroundImageFix" result="effect1_dropShadow_145_1398"/>
<feBlend mode="normal" in="SourceGraphic" in2="effect1_dropShadow_145_1398" result="shape"/>
</filter>
<filter id="filter33_i_145_1398" x="44.649" y="461.649" width="119.97" height="119.97" filterUnits="userSpaceOnUse" color-interpolation-filters="sRGB">
<feFlood flood-opacity="0" result="BackgroundImageFix"/>
<feBlend mode="normal" in="SourceGraphic" in2="BackgroundImageFix" result="shape"/>
<feColorMatrix in="SourceAlpha" type="matrix" values="0 0 0 0 0 0 0 0 0 0 0 0 0 0 0 0 0 0 127 0" result="hardAlpha"/>
<feOffset/>
<feGaussianBlur stdDeviation="5"/>
<feComposite in2="hardAlpha" operator="arithmetic" k2="-1" k3="1"/>
<feColorMatrix type="matrix" values="0 0 0 0 0 0 0 0 0 0 0 0 0 0 0 0 0 0 0.25 0"/>
<feBlend mode="normal" in2="shape" result="effect1_innerShadow_145_1398"/>
</filter>
<filter id="filter34_d_145_1398" x="81.8923" y="491.837" width="54.2612" height="67.6473" filterUnits="userSpaceOnUse" color-interpolation-filters="sRGB">
<feFlood flood-opacity="0" result="BackgroundImageFix"/>
<feColorMatrix in="SourceAlpha" type="matrix" values="0 0 0 0 0 0 0 0 0 0 0 0 0 0 0 0 0 0 127 0" result="hardAlpha"/>
<feOffset dy="4"/>
<feGaussianBlur stdDeviation="2"/>
<feComposite in2="hardAlpha" operator="out"/>
<feColorMatrix type="matrix" values="0 0 0 0 0 0 0 0 0 0 0 0 0 0 0 0 0 0 0.25 0"/>
<feBlend mode="normal" in2="BackgroundImageFix" result="effect1_dropShadow_145_1398"/>
<feBlend mode="normal" in="SourceGraphic" in2="effect1_dropShadow_145_1398" result="shape"/>
</filter>
<filter id="filter35_d_145_1398" x="214.225" y="491.225" width="158.701" height="158.701" filterUnits="userSpaceOnUse" color-interpolation-filters="sRGB">
<feFlood flood-opacity="0" result="BackgroundImageFix"/>
<feColorMatrix in="SourceAlpha" type="matrix" values="0 0 0 0 0 0 0 0 0 0 0 0 0 0 0 0 0 0 127 0" result="hardAlpha"/>
<feOffset/>
<feGaussianBlur stdDeviation="10"/>
<feComposite in2="hardAlpha" operator="out"/>
<feColorMatrix type="matrix" values="0 0 0 0 1 0 0 0 0 0.376471 0 0 0 0 0 0 0 0 1 0"/>
<feBlend mode="normal" in2="BackgroundImageFix" result="effect1_dropShadow_145_1398"/>
<feBlend mode="normal" in="SourceGraphic" in2="effect1_dropShadow_145_1398" result="shape"/>
</filter>
<filter id="filter36_i_145_1398" x="234.225" y="511.225" width="118.701" height="118.701" filterUnits="userSpaceOnUse" color-interpolation-filters="sRGB">
<feFlood flood-opacity="0" result="BackgroundImageFix"/>
<feBlend mode="normal" in="SourceGraphic" in2="BackgroundImageFix" result="shape"/>
<feColorMatrix in="SourceAlpha" type="matrix" values="0 0 0 0 0 0 0 0 0 0 0 0 0 0 0 0 0 0 127 0" result="hardAlpha"/>
<feOffset/>
<feGaussianBlur stdDeviation="5"/>
<feComposite in2="hardAlpha" operator="arithmetic" k2="-1" k3="1"/>
<feColorMatrix type="matrix" values="0 0 0 0 0 0 0 0 0 0 0 0 0 0 0 0 0 0 0.25 0"/>
<feBlend mode="normal" in2="shape" result="effect1_innerShadow_145_1398"/>
</filter>
<filter id="filter37_d_145_1398" x="265.765" y="537.788" width="64.5983" height="69.7595" filterUnits="userSpaceOnUse" color-interpolation-filters="sRGB">
<feFlood flood-opacity="0" result="BackgroundImageFix"/>
<feColorMatrix in="SourceAlpha" type="matrix" values="0 0 0 0 0 0 0 0 0 0 0 0 0 0 0 0 0 0 127 0" result="hardAlpha"/>
<feOffset dy="4"/>
<feGaussianBlur stdDeviation="2"/>
<feComposite in2="hardAlpha" operator="out"/>
<feColorMatrix type="matrix" values="0 0 0 0 0 0 0 0 0 0 0 0 0 0 0 0 0 0 0.25 0"/>
<feBlend mode="normal" in2="BackgroundImageFix" result="effect1_dropShadow_145_1398"/>
<feBlend mode="normal" in="SourceGraphic" in2="effect1_dropShadow_145_1398" result="shape"/>
</filter>
<filter id="filter38_d_145_1398" x="213.688" y="237.688" width="160.088" height="160.088" filterUnits="userSpaceOnUse" color-interpolation-filters="sRGB">
<feFlood flood-opacity="0" result="BackgroundImageFix"/>
<feColorMatrix in="SourceAlpha" type="matrix" values="0 0 0 0 0 0 0 0 0 0 0 0 0 0 0 0 0 0 127 0" result="hardAlpha"/>
<feOffset/>
<feGaussianBlur stdDeviation="10"/>
<feComposite in2="hardAlpha" operator="out"/>
<feColorMatrix type="matrix" values="0 0 0 0 1 0 0 0 0 0.376471 0 0 0 0 0 0 0 0 1 0"/>
<feBlend mode="normal" in2="BackgroundImageFix" result="effect1_dropShadow_145_1398"/>
<feBlend mode="normal" in="SourceGraphic" in2="effect1_dropShadow_145_1398" result="shape"/>
</filter>
<filter id="filter39_i_145_1398" x="233.688" y="257.688" width="120.088" height="120.088" filterUnits="userSpaceOnUse" color-interpolation-filters="sRGB">
<feFlood flood-opacity="0" result="BackgroundImageFix"/>
<feBlend mode="normal" in="SourceGraphic" in2="BackgroundImageFix" result="shape"/>
<feColorMatrix in="SourceAlpha" type="matrix" values="0 0 0 0 0 0 0 0 0 0 0 0 0 0 0 0 0 0 127 0" result="hardAlpha"/>
<feOffset/>
<feGaussianBlur stdDeviation="5"/>
<feComposite in2="hardAlpha" operator="arithmetic" k2="-1" k3="1"/>
<feColorMatrix type="matrix" values="0 0 0 0 0 0 0 0 0 0 0 0 0 0 0 0 0 0 0.25 0"/>
<feBlend mode="normal" in2="shape" result="effect1_innerShadow_145_1398"/>
</filter>
<filter id="filter40_d_145_1398" x="257.267" y="284.8" width="74.7325" height="74.7325" filterUnits="userSpaceOnUse" color-interpolation-filters="sRGB">
<feFlood flood-opacity="0" result="BackgroundImageFix"/>
<feColorMatrix in="SourceAlpha" type="matrix" values="0 0 0 0 0 0 0 0 0 0 0 0 0 0 0 0 0 0 127 0" result="hardAlpha"/>
<feOffset dy="4"/>
<feGaussianBlur stdDeviation="2"/>
<feComposite in2="hardAlpha" operator="out"/>
<feColorMatrix type="matrix" values="0 0 0 0 0 0 0 0 0 0 0 0 0 0 0 0 0 0 0.25 0"/>
<feBlend mode="normal" in2="BackgroundImageFix" result="effect1_dropShadow_145_1398"/>
<feBlend mode="normal" in="SourceGraphic" in2="effect1_dropShadow_145_1398" result="shape"/>
</filter>
<clipPath id="clip0_145_1398">
<rect width="360" height="800" fill="white"/>
</clipPath>
<clipPath id="clip1_145_1398">
<rect width="50" height="50" fill="white" transform="translate(282.942 284.8) rotate(25.6895)"/>
</clipPath>
</defs>
</svg>
